<?xml version="1.0" encoding="utf-8"?>
<!-- Generator: Adobe Illustrator 21.1.0, SVG Export Plug-In . SVG Version: 6.00 Build 0)  -->
<svg version="1.1" id="Capa_1" xmlns="http://www.w3.org/2000/svg" xmlns:xlink="http://www.w3.org/1999/xlink" x="0px" y="0px"
	 viewBox="0 0 321.9 72" style="enable-background:new 0 0 321.9 72;" xml:space="preserve">
<style type="text/css">
	.st0{fill:#FFFFFF;}
</style>
<g>
	<path class="st0" d="M52.7,68.7c0,0.2-0.1,0.3-0.4,0.3h-8.4c-0.3,0-0.4-0.1-0.4-0.3V38.2H9.6l-0.4,0.4v30.1c0,0.3-0.1,0.4-0.4,0.4
		H0.4c-0.3,0-0.4-0.1-0.4-0.4v-64c0-0.3,0.1-0.4,0.4-0.4h8.5c0.2,0,0.3,0.1,0.3,0.4v0.4h0.1v23c0.1,0.5,0.3,0.8,0.8,0.9l33.4-0.3
		V4.6c0.1-0.2,0.2-0.3,0.4-0.3h8.6c0.2,0,0.3,0.1,0.2,0.3V68.7z"/>
	<path class="st0" d="M125.8,52.3c-2.8,5.5-6.8,9.9-12.1,13.1c-5.3,3.3-10.9,4.9-17,5c-6.5,0.1-12.6-1.7-18.2-5.4
		c-5.6-3.7-9.7-8.5-12.3-14.5c-1.8-4.4-2.7-9-2.7-13.9c0-9,2.7-16.6,8.2-22.7C78.5,6.4,87,2.6,97.2,2.6c1.8,0,3.7,0.1,5.6,0.4
		c8.4,1.2,15.5,6.1,21.5,14.5c3.5,5,5.3,11.1,5.3,18.4C129.6,42,128.3,47.5,125.8,52.3z M117.8,26.8c-1-2.7-2.8-5.3-5.1-7.7
		c-2.4-2.4-4.9-4.1-7.7-5s-5.6-1.5-8.4-1.5c-6.8,0-12.3,2.3-16.5,6.9s-6.3,10.3-6.3,17c0,3.2,0.5,6.3,1.6,9.2
		c1.2,3.5,3.4,6.6,6.6,9.3c3.2,2.7,6.5,4.4,10,5c1.5,0.3,3,0.4,4.4,0.4c5.9,0,11.2-2.2,16-6.5c4.8-4.3,7.2-10.2,7.2-17.5
		C119.6,33.1,119,29.9,117.8,26.8z"/>
	<path class="st0" d="M198,4.8v63.9c0,0.3-0.1,0.4-0.4,0.4h-9.3c-0.2,0-0.3-0.1-0.4-0.2l-38.3-49.4v49.2c0,0.3-0.1,0.4-0.4,0.4h-8.4
		c-0.3,0-0.4-0.1-0.4-0.3v-64c0-0.3,0.1-0.4,0.4-0.4h8.5c0.1,0,0.4,0.1,0.8,0.4l38.7,49.7V4.8c0-0.3,0.1-0.4,0.4-0.4h8.4
		C197.8,4.4,198,4.5,198,4.8z"/>
	<path class="st0" d="M271.1,52.3c-2.8,5.5-6.8,9.9-12.1,13.1c-5.3,3.3-10.9,4.9-17,5c-6.5,0.1-12.6-1.7-18.2-5.4
		c-5.6-3.7-9.7-8.5-12.3-14.5c-1.8-4.4-2.7-9-2.7-13.9c0-9,2.7-16.6,8.2-22.7c6.7-7.5,15.2-11.3,25.5-11.3c1.8,0,3.7,0.1,5.6,0.4
		c8.4,1.2,15.5,6.1,21.5,14.5c3.5,5,5.3,11.1,5.3,18.4C274.8,42,273.5,47.5,271.1,52.3z M263,26.8c-1-2.7-2.8-5.3-5.1-7.7
		c-2.4-2.4-4.9-4.1-7.7-5s-5.6-1.5-8.4-1.5c-6.8,0-12.3,2.3-16.5,6.9s-6.3,10.3-6.3,17c0,3.2,0.5,6.3,1.6,9.2
		c1.2,3.5,3.4,6.6,6.6,9.3c3.2,2.7,6.5,4.4,10,5c1.5,0.3,3,0.4,4.4,0.4c5.9,0,11.2-2.2,16-6.5c4.8-4.3,7.2-10.2,7.2-17.5
		C264.8,33.1,264.2,29.9,263,26.8z"/>
	<path class="st0" d="M320.7,42.3c0.8,2.4,1.3,4.9,1.3,7.4c0,5.6-1.8,10.3-5.3,14c-4.2,4.4-9.3,6.6-15.4,6.6c-2.6,0-5.1-0.5-7.5-1.5
		c-2.4-1-4.7-2.6-6.7-4.9c-2.1-2.3-3.5-4.7-4.4-7.3l7.4-5.1c0.4,0.8,0.9,1.8,1.5,3c2.4,4.1,5.8,6.2,10.4,6.2c3.8,0,6.6-1.5,8.4-4.4
		c1.3-2.2,2-4.4,2-6.9c0-2.4-0.7-4.3-2.2-5.8c-1.7-1.8-4.2-3.5-7.4-5.1c-2.9-1.4-5.7-2.7-8.5-4.1c-5.5-2.9-8.8-6.2-9.8-9.9
		c-0.5-1.6-0.7-3.3-0.7-4.9c0-3.7,1-6.8,3.1-9.3c3.7-4.6,8.3-6.9,13.8-6.9c1.5,0,3,0.2,4.5,0.5c2.4,0.6,4.6,1.7,6.9,3.5
		c2.2,1.7,3.8,3.6,4.8,5.6c-1.8,1.2-4.3,2.9-7.7,5.2c-2.3-3.5-5-5.2-8.1-5.2c-0.7,0-1.3,0.1-2.1,0.3c-1.4,0.3-2.5,1.1-3.4,2.3
		c-0.9,1.2-1.4,2.5-1.4,3.9c0,2.6,1.3,4.6,3.8,6c4.3,2,8.7,4.1,13,6.1C315.9,34.4,319.1,38,320.7,42.3z"/>
</g>
</svg>
