<?xml version="1.0" encoding="utf-8"?>
<!-- Generator: Adobe Illustrator 21.1.0, SVG Export Plug-In . SVG Version: 6.00 Build 0)  -->
<svg version="1.1" id="Capa_1" xmlns="http://www.w3.org/2000/svg" xmlns:xlink="http://www.w3.org/1999/xlink" x="0px" y="0px"
	 viewBox="0 0 324 12.2" style="enable-background:new 0 0 324 12.2;" xml:space="preserve">
<style type="text/css">
	.st0{fill:#FFFFFF;}
</style>
<g>
	<rect x="0.9" y="3.9" class="st0" width="30.8" height="1.7"/>
	<rect x="292.7" y="3.9" class="st0" width="30.8" height="1.7"/>
</g>
<g>
	<path class="st0" d="M45,7.2c0,0.7-0.3,1.3-0.8,1.7s-1.2,0.6-2.1,0.6c-1,0-1.8-0.1-2.4-0.3V8.6C40.3,8.8,41.1,9,42,9
		c0.7,0,1.3-0.2,1.7-0.5s0.6-0.7,0.6-1.3c0-0.3-0.1-0.6-0.2-0.8S43.8,6,43.4,5.8s-0.8-0.4-1.4-0.6c-0.9-0.3-1.5-0.6-1.8-1
		s-0.5-0.8-0.5-1.4c0-0.6,0.3-1.2,0.8-1.6s1.1-0.6,1.9-0.6c0.8,0,1.6,0.2,2.3,0.5l-0.2,0.5c-0.7-0.3-1.4-0.4-2-0.4
		c-0.6,0-1.1,0.1-1.5,0.4s-0.6,0.7-0.6,1.2c0,0.3,0.1,0.6,0.2,0.8s0.3,0.4,0.6,0.5s0.7,0.4,1.3,0.6C43.2,5,43.7,5.2,44,5.4
		s0.6,0.5,0.7,0.7S45,6.8,45,7.2z"/>
	<path class="st0" d="M56.1,5.1c0,1.4-0.3,2.4-1,3.2s-1.6,1.2-2.8,1.2c-1.2,0-2.1-0.4-2.8-1.2s-1-1.9-1-3.2c0-1.4,0.3-2.4,1-3.2
		s1.6-1.2,2.8-1.2c1.2,0,2.1,0.4,2.8,1.2S56.1,3.7,56.1,5.1z M49.1,5.1c0,1.2,0.3,2.2,0.8,2.8s1.3,1,2.4,1c1,0,1.8-0.3,2.4-1
		s0.8-1.6,0.8-2.9c0-1.2-0.3-2.2-0.8-2.8s-1.3-1-2.4-1c-1,0-1.8,0.3-2.4,1S49.1,3.9,49.1,5.1z"/>
	<path class="st0" d="M60.9,9.4h-0.6V0.8H65v0.6h-4.1V5h3.9v0.6h-3.9V9.4z"/>
	<path class="st0" d="M70.7,9.4h-0.6v-8h-2.8V0.8h6.2v0.6h-2.8V9.4z"/>
	<path class="st0" d="M83.7,9.4h-0.5l-1.9-6.6c-0.2-0.5-0.3-1-0.4-1.3c-0.1,0.3-0.2,0.7-0.3,1.2S80,5.3,78.8,9.4h-0.5L76,0.8h0.6
		l1.5,5.5c0.1,0.2,0.1,0.4,0.2,0.6s0.1,0.4,0.1,0.5s0.1,0.3,0.1,0.5s0.1,0.3,0.1,0.5c0.1-0.5,0.3-1.3,0.6-2.4l1.5-5.2h0.7l1.7,6
		c0.2,0.7,0.3,1.2,0.4,1.7c0.1-0.3,0.1-0.6,0.2-0.9s0.7-2.6,1.8-6.7h0.6L83.7,9.4z"/>
	<path class="st0" d="M93.9,6.4h-3.5l-1.2,3h-0.7L92,0.8h0.4l3.4,8.6h-0.7L93.9,6.4z M90.6,5.8h3.1l-1.2-3.1c-0.1-0.2-0.2-0.6-0.4-1
		c-0.1,0.4-0.2,0.7-0.3,1L90.6,5.8z"/>
	<path class="st0" d="M99.7,5.7v3.7h-0.6V0.8h2c1.1,0,1.8,0.2,2.4,0.6s0.8,1,0.8,1.8c0,0.6-0.2,1.1-0.5,1.5s-0.8,0.7-1.4,0.8
		l2.3,3.9h-0.7l-2.2-3.7H99.7z M99.7,5.1h1.6c0.7,0,1.3-0.2,1.7-0.5s0.6-0.8,0.6-1.4c0-0.7-0.2-1.1-0.6-1.4s-1-0.4-1.9-0.4h-1.4V5.1
		z"/>
	<path class="st0" d="M113.1,9.4h-4.7V0.8h4.7v0.6H109v3.2h3.9v0.6H109v3.7h4.1V9.4z"/>
	<path class="st0" d="M129,5c0,1.4-0.4,2.5-1.1,3.3s-1.9,1.1-3.3,1.1h-2.1V0.8h2.3c1.4,0,2.4,0.4,3.1,1.1S129,3.7,129,5z M128.3,5
		c0-1.2-0.3-2.1-0.9-2.8s-1.5-0.9-2.7-0.9h-1.6v7.5h1.4C127,8.9,128.3,7.6,128.3,5z"/>
	<path class="st0" d="M137.8,9.4h-4.7V0.8h4.7v0.6h-4.1v3.2h3.9v0.6h-3.9v3.7h4.1V9.4z"/>
	<path class="st0" d="M150.8,1.2c-1.1,0-1.9,0.3-2.5,1s-0.9,1.6-0.9,2.8c0,1.2,0.3,2.2,0.9,2.8s1.4,1,2.5,1c0.7,0,1.4-0.1,2-0.3v0.5
		c-0.6,0.2-1.3,0.3-2.1,0.3c-1.2,0-2.2-0.4-2.8-1.2s-1-1.9-1-3.3c0-0.9,0.2-1.6,0.5-2.3s0.8-1.2,1.4-1.5s1.3-0.5,2.2-0.5
		c0.8,0,1.6,0.2,2.2,0.5l-0.2,0.5C152.2,1.4,151.5,1.2,150.8,1.2z"/>
	<path class="st0" d="M164,5.1c0,1.4-0.3,2.4-1,3.2s-1.6,1.2-2.8,1.2c-1.2,0-2.1-0.4-2.8-1.2s-1-1.9-1-3.2c0-1.4,0.3-2.4,1-3.2
		s1.6-1.2,2.8-1.2c1.2,0,2.1,0.4,2.8,1.2S164,3.7,164,5.1z M157,5.1c0,1.2,0.3,2.2,0.8,2.8s1.3,1,2.4,1c1,0,1.8-0.3,2.4-1
		s0.8-1.6,0.8-2.9c0-1.2-0.3-2.2-0.8-2.8s-1.3-1-2.4-1c-1,0-1.8,0.3-2.4,1S157,3.9,157,5.1z"/>
	<path class="st0" d="M174.3,9.4h-0.6l-5.1-7.6h0c0,0.9,0.1,1.6,0.1,2.1v5.6h-0.6V0.8h0.6l5.1,7.6h0c0-0.7-0.1-1.4-0.1-2V0.8h0.6
		V9.4z"/>
	<path class="st0" d="M181.1,9.4h-0.6v-8h-2.8V0.8h6.2v0.6h-2.8V9.4z"/>
	<path class="st0" d="M188,5.7v3.7h-0.6V0.8h2c1.1,0,1.8,0.2,2.4,0.6s0.8,1,0.8,1.8c0,0.6-0.2,1.1-0.5,1.5s-0.8,0.7-1.4,0.8l2.3,3.9
		h-0.7l-2.2-3.7H188z M188,5.1h1.6c0.7,0,1.3-0.2,1.7-0.5s0.6-0.8,0.6-1.4c0-0.7-0.2-1.1-0.6-1.4s-1-0.4-1.9-0.4H188V5.1z"/>
	<path class="st0" d="M203.9,5.1c0,1.4-0.3,2.4-1,3.2s-1.6,1.2-2.8,1.2c-1.2,0-2.1-0.4-2.8-1.2s-1-1.9-1-3.2c0-1.4,0.3-2.4,1-3.2
		s1.6-1.2,2.8-1.2c1.2,0,2.1,0.4,2.8,1.2S203.9,3.7,203.9,5.1z M196.8,5.1c0,1.2,0.3,2.2,0.8,2.8s1.3,1,2.4,1c1,0,1.8-0.3,2.4-1
		s0.8-1.6,0.8-2.9c0-1.2-0.3-2.2-0.8-2.8s-1.3-1-2.4-1c-1,0-1.8,0.3-2.4,1S196.8,3.9,196.8,5.1z"/>
	<path class="st0" d="M208,9.4V0.8h0.6v8h4.1v0.6H208z"/>
	<path class="st0" d="M220.2,11.6c-0.4,0-0.7-0.1-0.9-0.2v-0.5c0.3,0.1,0.6,0.1,0.9,0.1c0.9,0,1.4-0.5,1.4-1.5V0.8h0.6v8.6
		C222.2,10.8,221.5,11.6,220.2,11.6z"/>
	<path class="st0" d="M233,0.8v5.5c0,1-0.3,1.8-0.9,2.3s-1.4,0.8-2.4,0.8c-1,0-1.8-0.3-2.3-0.8s-0.8-1.3-0.8-2.3V0.8h0.6v5.5
		c0,0.8,0.2,1.5,0.7,1.9S229,9,229.8,9c0.8,0,1.4-0.2,1.9-0.7s0.7-1.1,0.7-1.9V0.8H233z"/>
	<path class="st0" d="M238.1,5.7v3.7h-0.6V0.8h2c1.1,0,1.8,0.2,2.4,0.6s0.8,1,0.8,1.8c0,0.6-0.2,1.1-0.5,1.5s-0.8,0.7-1.4,0.8
		l2.3,3.9h-0.7l-2.2-3.7H238.1z M238.1,5.1h1.6c0.7,0,1.3-0.2,1.7-0.5s0.6-0.8,0.6-1.4c0-0.7-0.2-1.1-0.6-1.4s-1-0.4-1.9-0.4h-1.4
		V5.1z"/>
	<path class="st0" d="M246.8,9.4V0.8h0.6v8.6H246.8z"/>
	<path class="st0" d="M258.5,5c0,1.4-0.4,2.5-1.1,3.3s-1.9,1.1-3.3,1.1H252V0.8h2.3c1.4,0,2.4,0.4,3.1,1.1S258.5,3.7,258.5,5z
		 M257.8,5c0-1.2-0.3-2.1-0.9-2.8s-1.5-0.9-2.7-0.9h-1.6v7.5h1.4C256.5,8.9,257.8,7.6,257.8,5z"/>
	<path class="st0" d="M262.6,9.4V0.8h0.6v8.6H262.6z"/>
	<path class="st0" d="M271.4,1.2c-1.1,0-1.9,0.3-2.5,1S268,3.9,268,5.1c0,1.2,0.3,2.2,0.9,2.8s1.4,1,2.5,1c0.7,0,1.4-0.1,2-0.3v0.5
		c-0.6,0.2-1.3,0.3-2.1,0.3c-1.2,0-2.2-0.4-2.8-1.2s-1-1.9-1-3.3c0-0.9,0.2-1.6,0.5-2.3s0.8-1.2,1.4-1.5s1.3-0.5,2.2-0.5
		c0.8,0,1.6,0.2,2.2,0.5l-0.2,0.5C272.8,1.4,272.1,1.2,271.4,1.2z"/>
	<path class="st0" d="M284.6,5.1c0,1.4-0.3,2.4-1,3.2s-1.6,1.2-2.8,1.2c-1.2,0-2.1-0.4-2.8-1.2s-1-1.9-1-3.2c0-1.4,0.3-2.4,1-3.2
		s1.6-1.2,2.8-1.2c1.2,0,2.1,0.4,2.8,1.2S284.6,3.7,284.6,5.1z M277.6,5.1c0,1.2,0.3,2.2,0.8,2.8s1.3,1,2.4,1c1,0,1.8-0.3,2.4-1
		s0.8-1.6,0.8-2.9c0-1.2-0.3-2.2-0.8-2.8s-1.3-1-2.4-1c-1,0-1.8,0.3-2.4,1S277.6,3.9,277.6,5.1z"/>
</g>
</svg>
