<?xml version="1.0" encoding="utf-8"?>
<!-- Generator: Adobe Illustrator 21.1.0, SVG Export Plug-In . SVG Version: 6.00 Build 0)  -->
<svg version="1.1" id="Capa_1" xmlns="http://www.w3.org/2000/svg" xmlns:xlink="http://www.w3.org/1999/xlink" x="0px" y="0px"
	 viewBox="0 0 374.4 84.1" style="enable-background:new 0 0 374.4 84.1;" xml:space="preserve">
<style type="text/css">
	.st0{fill:#FFFFFF;}
</style>
<g>
	<path class="st0" d="M29.8,3.9v28h27.1v-28h16.4v72.8H56.9V46.2H29.8v30.5H13.3V3.9H29.8z"/>
	<path class="st0" d="M154.3,39.5c0,23.9-14.5,38.3-35.7,38.3c-21.6,0-34.2-16.3-34.2-37c0-21.8,13.9-38.1,35.4-38.1
		C142.1,2.7,154.3,19.4,154.3,39.5z M101.7,40.5c0,14.3,6.7,24.3,17.7,24.3c11.1,0,17.5-10.6,17.5-24.7c0-13.1-6.3-24.3-17.6-24.3
		C108.2,15.8,101.7,26.4,101.7,40.5z"/>
	<path class="st0" d="M165.1,76.7V3.9h19.2l15.1,26.7c4.3,7.7,8.6,16.7,11.9,24.9h0.3c-1.1-9.6-1.4-19.4-1.4-30.3V3.9h15.1v72.8
		h-17.3l-15.6-28.1c-4.3-7.8-9.1-17.2-12.6-25.7l-0.3,0.1c0.4,9.6,0.6,19.9,0.6,31.8v21.9H165.1z"/>
	<path class="st0" d="M306.3,39.5c0,23.9-14.5,38.3-35.7,38.3c-21.6,0-34.2-16.3-34.2-37c0-21.8,13.9-38.1,35.4-38.1
		C294.1,2.7,306.3,19.4,306.3,39.5z M253.7,40.5c0,14.3,6.7,24.3,17.7,24.3c11.1,0,17.5-10.6,17.5-24.7c0-13.1-6.3-24.3-17.6-24.3
		C260.2,15.8,253.7,26.4,253.7,40.5z"/>
	<path class="st0" d="M317.6,59.7c4.4,2.3,11.2,4.5,18.3,4.5c7.6,0,11.6-3.1,11.6-7.9c0-4.5-3.5-7.1-12.2-10.3
		c-12.1-4.2-20-10.9-20-21.5c0-12.4,10.4-21.9,27.5-21.9c8.2,0,14.3,1.7,18.6,3.7l-3.7,13.3c-2.9-1.4-8.1-3.5-15.2-3.5
		s-10.6,3.2-10.6,7c0,4.6,4.1,6.7,13.5,10.3c12.9,4.8,18.9,11.4,18.9,21.7c0,12.2-9.4,22.6-29.4,22.6c-8.3,0-16.5-2.2-20.6-4.4
		L317.6,59.7z"/>
</g>
</svg>
