<?xml version="1.0" encoding="utf-8"?>
<!-- Generator: Adobe Illustrator 21.1.0, SVG Export Plug-In . SVG Version: 6.00 Build 0)  -->
<svg version="1.1" id="Capa_1" xmlns="http://www.w3.org/2000/svg" xmlns:xlink="http://www.w3.org/1999/xlink" x="0px" y="0px"
	 viewBox="0 0 320.4 320" style="enable-background:new 0 0 320.4 320;" xml:space="preserve">
<style type="text/css">
	.st0{fill:#FCFDFD;}
</style>
<g>
	<path class="st0" d="M197.8,121.6c22.3-16.6,32.6-39.9,36.7-69.1c6.6,8.3,12.5,14.9,17.5,22.1c12.9,18.5,22.9,38.5,28,60.5
		c3.3,14.4,7.6,29.1,7.4,43.7c-1,68.8-53.8,123.6-120.1,130.7c-17.8,1.9-35.3,0.4-52.4-4.6c-34.9-10.1-61-31.4-79.7-62.3
		c-15.3-25.3-20.1-52.8-17-81.8c3.7-34.7,19-63.9,45.4-86.4c28.4-24.3,62-36.8,99-42.3c17.9-2.7,36.4-6.9,50.2-21
		c4.3-4.3,10.2-2.8,11.4,4.1c1.7,10.1,3.4,21,1.5,30.9c-5.1,26.8-22.9,43.5-47.9,52.3c-14.6,5.2-29.8,8.6-44.7,12.9
		c-32.7,9.5-53.3,42.9-47.1,76.1c6.3,33.9,37.3,58.1,70.8,55.4c35.4-2.8,62.4-30.4,63.3-64.8C220.7,156.4,215.8,143.8,197.8,121.6z"
		/>
</g>
</svg>
