<?xml version="1.0" encoding="utf-8"?>
<!-- Generator: Adobe Illustrator 19.0.1, SVG Export Plug-In . SVG Version: 6.00 Build 0)  -->
<svg version="1.0" id="Capa_1" xmlns="http://www.w3.org/2000/svg" xmlns:xlink="http://www.w3.org/1999/xlink" x="0px" y="0px"
	 viewBox="0 0 481.3 467.1" style="enable-background:new 0 0 481.3 467.1;" xml:space="preserve">
<style type="text/css">
	.st0{fill:#2B2A29;}
	.st1{fill:#87273B;}
	.st2{fill:#FFFFFF;}
	.st3{fill:#C09534;}
</style>
<g>
	<path class="st0" d="M478.9,222c-1.1-22.6-5.5-44.6-13.1-65.9c-6.8-19-15.9-36.9-27.3-53.5c-18.1-26.3-40.6-48-67.6-65.1
		c-20.6-13-42.7-22.6-66.3-28.7C294.9,6.2,285,4.4,275,3.1c-13.9-1.7-27.9-2.2-41.9-1.4c-0.7,0-1.4,0.1-2.2,0.2
		c-0.4,0-0.9,0.2-1.3,0.1c-1.7-0.4-3.4,0.2-5.1,0c-1,0.3-2,0.3-3,0.3c-2.1,0.5-4.3,0.5-6.4,0.8c-4.5,0.7-9,1.4-13.4,2.2
		c-3.2,0.6-6.3,1.3-9.4,2.1c-3.2,0.8-6.4,1.6-9.5,2.5c-2.8,0.8-5.5,1.5-8.2,2.4c-3.7,1.2-7.5,2.5-11.2,3.9
		c-4.5,1.7-8.9,3.6-13.3,5.4c-1,0.6-2.1,1.1-3.2,1.6c-0.7,0.4-1.5,0.6-2.2,0.7c-1.8,0.3-3.7,0.5-5.5,0.8c-4.4,0.8-8.8,1.4-13.2,2.4
		c-3.6,0.8-7.1,1.8-10.5,3c-5,1.8-9.7,4.1-14.2,6.8c-4.5,2.8-8.8,6-12.9,9.4c-2.9,2.4-5.6,5-8.2,7.7c-0.9,1.2-2,2.3-3,3.4
		c-3.5,4.2-7,8.3-10.1,12.7c-2.8,4.1-5.3,8.4-7.5,12.9c-2.7,5.7-5.4,11.4-8,17.1c-2.4,5-4.8,10.1-7.8,14.8
		c-2.8,4.4-5.9,8.8-9.1,12.9c-4.1,5.3-8.1,10.5-12.2,15.8c-1.5,2-3,4-4.5,6.1c-0.3,0.3-0.8,0.7-1,1.1c-2.1,1.7-4,3.5-6,5.3
		c-1.7,0.8-3.2,1.8-4.6,3c-1.1,0.6-2.2,1.3-3.3,2C3,161,2.8,161,2.6,161.1c0,0.6,0,1.2,0,1.8c0.3,0,0.6,0.1,0.8,0.3
		c0.7,0.7,1.5,0.9,2.4,0.5c1.1-0.4,2.2-0.5,3.3-0.8c4-1.3,7.8-3,11.3-5.4c2.1-1.5,4.3-3,6.7-4.6c0,0.5,0,0.8-0.1,1.1
		c-0.7,2.2-1.5,4.3-2.2,6.5c-0.9,2.7-1.8,5.3-2.6,8c-1.3,4.6-2.4,9.1-3.6,13.7c-0.4,0.5-0.7,1.1-0.9,1.8c-2,2.5-3.9,5-5.8,7.5
		c-0.7,0.9-1.3,2-1.9,2.9c0.4,0.6,0.4,1.5,0,2.1c0.3,0.5,0.6,0.9,0.9,1.5c0.3-0.2,0.7-0.3,0.9-0.5c1.1-0.9,2.3-1.8,3.4-2.6
		c0.2-0.1,0.4-0.2,0.7-0.3c0,0.4,0,0.6,0,0.8c-0.3,2.2-0.7,4.5-1,6.7c-0.5,3.7-1,7.5-1.3,11.2c-0.2,2.3-0.2,4.5-0.4,6.8
		c-0.4,4.1-0.2,8.3-0.3,12.4c-0.1,2,0.1,4.1,0.1,6.1c0.1,2.3,0.2,4.6,0.1,6.9c0.3,5.4,0.7,10.8,1.3,16.2c0.7,5.2,1.4,10.5,2.5,15.6
		c0.8,3.8,1.5,7.6,2.4,11.4c0.9,3.7,1.9,7.3,3,11c0.8,2.3,2,5.9,2.6,8.2c0.3,0.7,0.4,1.3,0.2,2c-0.1,0.6-0.4,1.2,0,1.8
		c0.3,0,0.7,0.1,1,0.1c0.1,0.1,0.2,0.2,0.2,0.3c2.8,7.8,6,15.4,9.6,22.9c0.8,1.7,1.6,3.3,2.5,5c0.3,0.5,0.4,1,0.2,1.5
		c-1.5,4.8-3.1,9.7-4.5,14.6c-0.7,2.2-1.2,4.4-1.8,6.5c0.4,0.7,1.1,0.9,1.7,0.8c0.6-0.1,1.3-0.2,1.9-0.4c1.7-0.6,3.2-1.6,4.6-2.7
		c1.7-1.3,3.4-2.6,4.9-4.2c0.4-0.4,0.8-0.7,1.3-1.1c0.5,0.8,1,1.6,1.5,2.3c3.9,6.3,8.2,12.4,12.7,18.3c3.6,4.7,7.4,9.3,11.4,13.7
		c5.2,5.8,10.6,11.2,16.3,16.5c4.7,4.3,9.6,8.5,14.7,12.4c4.8,3.7,9.7,7.2,14.8,10.5c2.5,1.6,5,3.3,7.6,4.8
		c6.2,3.4,12.3,6.9,18.7,10c14.7,7.1,29.9,12.6,45.8,16.5c7.9,2,15.9,3.5,24,4.6c13.7,1.9,27.5,2.5,41.3,2
		c9.1-0.3,18.2-1.3,27.2-2.7c14.9-2.4,29.3-6.1,43.5-11.2c30.1-11,56.9-27.5,80.3-49.6c22.9-21.7,40.7-47,53.4-75.8
		c6.6-15.1,11.6-30.7,14.8-46.9c1.5-7.5,2.7-15.1,3.5-22.8C479.3,245.8,479.5,233.9,478.9,222z M152,438.8c-0.1-0.2-0.3-0.4-0.4-0.6
		c0.8,0.4,1.6,0.7,2.4,1.1c-0.3,0.2-0.5,0.5-0.8,0.7C152.4,439.9,152.3,439.3,152,438.8z"/>
	<g id="ROJO">
		<path class="st1" d="M351.6,105.2c-0.2,0.2-0.2,0.4-0.4,0.6c-0.7,0.7-1.5,1.4-2.3,2.1c-2.7,2.6-5.5,5.2-8.2,7.8
			c-1.9,1.8-3.8,3.5-5.6,5.3c-2.8,2.6-5.6,5.2-8.4,7.8c-2.8,2.6-5.5,5.2-8.2,7.8c-1.9,1.8-3.8,3.5-5.6,5.3c-1.8,1.6-3.5,3.3-5.3,4.9
			c-0.3,0.3-0.7,0.4-1.1,0.7c-0.2-0.5-0.5-1-0.6-1.4c-0.8-2.7-1.5-5.4-2.2-8.1c-1.4-4.9-2.7-9.8-4.1-14.7c-1.2-4.2-2.3-8.4-3.5-12.7
			c-1.1-4.1-2.3-8.2-3.4-12.3c-0.2-0.7-0.4-1.4-0.6-2.1c-0.1-0.3,0-0.7,0-1.1c0.4,0,0.7,0,1,0.1c3.5,0.6,7.1,1.2,10.6,1.7
			c3.2,0.5,6.4,1.1,9.6,1.6c3.8,0.6,7.6,1.3,11.3,1.9c3.2,0.6,6.5,1.1,9.7,1.7c2.8,0.5,5.7,1,8.5,1.5c2.8,0.5,5.5,1,8.3,1.5
			C351.2,105,351.4,105.1,351.6,105.2z"/>
		<path class="st1" d="M295.4,90c0.1-0.3,0-0.5,0.1-0.5c7.8-9.6,15.6-19.3,23.4-28.9c0.2-0.2,0.4-0.4,0.7-0.6c0.5,0.3,1,0.5,1.4,0.8
			c4,2.9,8,5.9,11.8,9.1c7.2,5.9,13.6,12.5,20,19.1c2.2,2.3,4.3,4.7,6.4,7.1c0.4,0.4,0.7,0.8,0.8,1.4c-0.8,1.1-1.8,1.9-2.8,2.8
			c-0.4,0.4-1,0.4-1.5,0.3c-0.9-0.1-1.9-0.3-2.8-0.5c-3.2-0.5-6.4-1.1-9.6-1.6c-3.1-0.5-6.1-1.1-9.2-1.6c-2.5-0.4-5-0.8-7.4-1.3
			c-3.2-0.5-6.4-1.1-9.6-1.6c-3.9-0.7-7.8-1.3-11.7-2c-3-0.5-6-1-9-1.5C296.1,90.4,295.8,90.2,295.4,90z"/>
		<path class="st1" d="M301.2,149.4c-1.1,0.2-2,0.1-3,0c-0.6-0.1-1.3-0.1-2-0.2c-2.1-0.2-4.3-0.4-6.4-0.6c-1.7-0.2-3.3-0.3-5-0.5
			c-2.1-0.2-4.2-0.4-6.2-0.6c-1.2-0.1-2.5-0.3-3.7-0.4c-1.8-0.2-3.7-0.3-5.5-0.4c-1.8-0.2-3.7-0.4-5.5-0.6c-0.2,0-0.5-0.1-0.7-0.1
			c-1.9-0.1-3.8-0.3-5.7-0.4c-1.4-0.1-2.9-0.2-4.3-0.4c-0.5-0.1-1-0.3-1.5-0.4c-0.3-0.6,0.1-1,0.4-1.4c1.1-1.4,2.2-2.7,3.3-4.1
			c2.9-3.5,5.7-7.1,8.6-10.6c2.1-2.7,4.3-5.3,6.4-8c2.9-3.6,5.8-7.2,8.7-10.8c2.2-2.7,4.5-5.5,6.7-8.2c0.3-0.4,0.6-0.9,1-1.3
			c0.3-0.3,0.6-0.5,0.9-0.8c0.2,0.2,0.3,0.4,0.4,0.5c4.5,16.2,8.9,32.3,13.4,48.5C301.3,148.9,301.2,149.1,301.2,149.4z"/>
		<path class="st1" d="M195.7,206.3c-1.9-0.4-3.7-0.8-5.6-1.2c0.1-0.3,0.1-0.6,0.3-0.8c2.7-3.5,5.5-7,8.2-10.5
			c2.2-2.8,4.4-5.7,6.6-8.5c2.5-3.2,5-6.3,7.4-9.5c2.2-2.8,4.3-5.6,6.5-8.4c2.9-3.7,5.8-7.5,8.7-11.2c2.2-2.8,4.3-5.6,6.5-8.4
			c2.5-3.2,5-6.3,7.4-9.5c1.7-2.2,3.4-4.5,5.2-6.7c2.5-3.2,5-6.3,7.4-9.5c2.2-2.8,4.3-5.6,6.5-8.4c2.9-3.7,5.8-7.5,8.7-11.2
			c1.8-2.3,3.5-4.5,5.3-6.8c2.9-3.7,5.8-7.5,8.7-11.2c2.1-2.7,4.3-5.5,6.4-8.2c2.9-3.7,5.8-7.5,8.7-11.2c1.8-2.4,3.7-4.7,5.5-7.1
			c1-1.2,1.9-2.5,2.9-3.7c0.4-0.5,0.7-1,1.4-1.2c1.7,1,3.7,1.8,5.3,3.3c-0.2,0.3-0.2,0.6-0.4,0.8c-3.2,4-6.3,8-9.5,12
			c-3.4,4.3-6.8,8.5-10.2,12.8c-2.3,3-4.6,6-7,8.9c-2.4,3.1-4.9,6.2-7.4,9.3c-2,2.6-4.1,5.2-6.1,7.7c-2.6,3.3-5.3,6.7-7.9,10
			c-1.7,2.1-3.3,4.3-5,6.4c-2.3,2.9-4.6,5.8-6.9,8.7c-3.7,4.7-7.5,9.4-11.2,14.1c-2.3,3-4.6,6-7,8.9c-2.4,3.1-4.9,6.2-7.4,9.3
			c-2,2.6-4.1,5.2-6.2,7.7c-3,3.8-6,7.6-9,11.4c-2.4,3.1-4.9,6.2-7.3,9.3c-2.6,3.2-5.1,6.5-7.7,9.7
			C197.1,204.5,196.4,205.4,195.7,206.3z"/>
		<path class="st1" d="M262.3,188.8c-0.2-0.4-0.5-0.6-0.6-1c-1.1-3.4-2.2-6.7-3.2-10.1c-0.2-0.5-0.3-1-0.5-1.6
			c-2.2-6.7-4.3-13.5-6.5-20.2c-0.5-1.5-1-3.1-1.4-4.6c-0.1-0.3-0.2-0.7-0.2-0.9c0.3-0.6,0.8-0.5,1.2-0.4c2.3,0.2,4.5,0.4,6.8,0.7
			c1.9,0.2,3.8,0.4,5.7,0.6c1.5,0.2,3,0.3,4.5,0.4c1.7,0.1,3.5,0.3,5.2,0.4c1.8,0.2,3.7,0.4,5.5,0.6c1.7,0.2,3.5,0.3,5.2,0.5
			c2,0.2,3.9,0.4,5.9,0.6c1.7,0.2,3.3,0.3,5,0.5c1.2,0.1,2.4,0.3,3.7,0.4c-0.2,0.3-0.3,0.6-0.5,0.8c-0.9,0.9-1.8,1.7-2.8,2.6
			c-0.2,0.2-0.4,0.3-0.5,0.5c-3.1,2.9-6.1,5.9-9.3,8.8c-2.6,2.4-5.2,4.8-7.8,7.2c-0.1,0.1-0.2,0.2-0.3,0.2c-2.7,2.6-5.4,5.1-8.1,7.7
			c-2.1,2-4.2,3.9-6.3,5.9C262.9,188.5,262.6,188.6,262.3,188.8z"/>
		<path class="st1" d="M193.2,425c2.2-2.7,4.3-5.3,6.4-7.9c2.1-2.6,4.2-5.2,6.4-7.7c2.2-2.5,4.1-5.2,6.4-7.6
			c0.5,0.3,0.4,0.6,0.5,0.9c0.1,5,0.3,9.9,0.4,14.9c0,0.4,0,0.8,0,1.3c0,0.7-0.2,1.3-0.6,1.8c-1.4,1.7-2.7,3.5-4.1,5.2
			c-1.4,1.7-2.8,3.4-4.2,5.1c-1.5,1.8-3,3.6-4.5,5.4c-1.6,1.9-3.1,3.8-4.7,5.7c-0.6,0.8-1.2,1.6-2.3,2.1c-0.3-0.2-0.7-0.4-1-0.7
			c-2.4-2.6-4.9-5.3-7.3-7.9c-0.1-0.1-0.2-0.3-0.4-0.4c-2-2.2-4.1-4.4-6.1-6.6c-1.7-1.9-3.4-3.7-5-5.6c-0.2-0.3-0.5-0.6-0.7-0.8
			c-1.5-1.1-1.8-2.7-1.9-4.5c0-1.7,0-3.5,0-5.2c0-3.1,0-6.2,0-9.4c0-0.6,0-1.2,0-1.7c0.5-0.2,0.7,0,0.9,0.2c1,1.1,2,2.2,3,3.3
			c2.1,2.3,4.3,4.5,6.4,6.8c1.4,1.5,2.8,3,4.1,4.5c2.2,2.4,4.4,4.8,6.5,7.2C191.8,423.9,192.2,424.5,193.2,425z"/>
		<path class="st1" d="M256.6,189.3c-1.3,0.3-2.6,0.1-3.9,0c-1.9-0.2-3.8-0.4-5.7-0.6c-2-0.2-4-0.4-6.1-0.6
			c-1.3-0.1-2.6-0.3-3.9-0.4c-1.9-0.2-3.8-0.3-5.7-0.4c-1.8-0.2-3.6-0.4-5.3-0.6c-0.2,0-0.5-0.1-0.7-0.1c-2-0.1-3.9-0.3-5.9-0.4
			c-0.4,0-0.8-0.2-1.1-0.3c-0.1-0.7,0.2-1,0.5-1.4c3.5-4.4,7.1-8.8,10.6-13.1c3.2-4,6.5-8,9.7-12c1.7-2.1,3.4-4.3,5.2-6.4
			c0.1-0.2,0.3-0.3,0.5-0.5c0.6,0,0.7,0.5,0.8,0.9c0.6,1.8,1.2,3.5,1.7,5.3c0.4,1.3,0.8,2.6,1.2,3.9c2.6,8.1,5.1,16.1,7.7,24.2
			C256.3,187.6,256.7,188.4,256.6,189.3z"/>
		<path class="st1" d="M138.8,393.3c2.1,3.1,4,6.3,6,9.3c2,3,3.8,6.1,5.8,9.1c2,3.1,3.9,6.1,5.9,9.2c0.9-0.2,1.5-0.7,2-1.3
			c2.1-2.2,4.6-4,6.9-6.1c0.5-0.4,1-0.8,1.6-1c0.5,0.6,0.5,1.2,0.5,1.8c0,1.4,0,2.8,0.1,4.1c0,1.8,0.5,3.5,1.8,4.9
			c0.5,0.5,0.9,1.1,1.4,1.8c-1,1.2-2.2,2.1-3.4,3.1c-1.2,0.9-2.3,2-3.4,2.9c-1.2,1-2.4,2-3.6,3c-1.2,0.9-2.3,1.9-3.5,2.8
			c-1.2,1-2.4,2-3.5,2.9c-0.8-0.1-0.9-0.7-1.2-1.1c-1.8-2.8-3.6-5.6-5.4-8.5c-1.9-2.9-3.7-5.9-5.5-8.8c-1.6-2.5-3.2-5.1-4.8-7.6
			c-0.8-1.2-1-2.4-0.7-3.8c0.6-3.3,1.1-6.6,1.7-9.9c0.4-2.2,0.8-4.4,1.1-6.5C138.4,393.7,138.5,393.6,138.8,393.3z"/>
		<path class="st1" d="M217.1,191c1.6,0.2,3.2,0.4,4.8,0.5c1.5,0.2,3,0.3,4.5,0.4c2,0.2,3.9,0.3,5.9,0.4c1.1,0.1,2.1,0.2,3.2,0.3
			c1.8,0.2,3.7,0.4,5.5,0.6c1.7,0.2,3.5,0.3,5.2,0.5c2,0.2,3.9,0.4,5.9,0.6c0.6,0.1,1.2,0.1,1.8,0.1c0.5,0,1.1,0,1.6,0.5
			c-0.1,0.2-0.3,0.5-0.5,0.7c-1.6,1.5-3.2,3-4.9,4.5c-0.1,0.1-0.3,0.2-0.4,0.4c-3,2.9-6.1,5.8-9.1,8.7c-2.4,2.2-4.8,4.4-7.1,6.6
			c-0.9,0.8-1.7,1.7-2.6,2.5c-1.4,1.3-2.8,2.6-4.2,3.9c-0.1,0.1-0.3,0.2-0.6,0.3c-0.2-0.3-0.4-0.6-0.5-0.9c-1-3.3-2-6.7-3-10
			c-1.1-3.8-2.2-7.6-3.3-11.4c-0.7-2.5-1.5-5-2.3-7.6C216.8,192.3,216.6,191.7,217.1,191z"/>
		<path class="st1" d="M217.5,413.9c0.6,0.3,0.9,0.4,1.2,0.6c2.8,2.1,5.6,4.3,8.4,6.5c0.7,0.5,1.1,0.4,1.5-0.3
			c0.2-0.4,0.5-0.8,0.7-1.3c1.6-3.3,3.5-6.6,5.4-9.8c2.2-3.8,4.3-7.6,6.5-11.4c0.6-1,1.2-2,1.8-3c0.5,0.1,0.5,0.4,0.6,0.7
			c0.5,2.5,1.1,5,1.6,7.5c0.6,2.6,1,5.3,1.6,7.9c0.2,0.8,0.1,1.5-0.3,2.2c-1.5,2.8-3,5.6-4.5,8.4c-1.6,2.9-3.2,5.7-4.9,8.6
			c-1.8,3.1-3.5,6.1-5.3,9.2c-0.1,0.2-0.3,0.4-0.5,0.6c-0.4-0.2-0.8-0.3-1.1-0.5c-1.8-1.4-3.6-2.7-5.4-4.1c-3.5-2.7-7-5.4-10.5-8.1
			c-0.1-0.1-0.3-0.2-0.4-0.3c-0.5-0.5-0.6-0.8-0.2-1.4c0.8-1.1,1.6-2.1,2.4-3.1c1.1-1.4,1.7-3,1.7-4.8
			C217.5,416.7,217.5,415.5,217.5,413.9z"/>
		<path class="st1" d="M221.4,226.6c-0.5-0.2-0.7-0.7-0.9-1.1c-3.4-6.4-8.4-11.3-14.5-15.1c-1.4-0.9-3-1.5-4.5-2.2
			c-0.4-0.2-0.7-0.4-1.2-0.6c0.8-1.4,1.8-2.4,2.7-3.6c1-1.2,2-2.4,2.9-3.6c0.9-1.2,1.9-2.3,2.8-3.5c0.9-1.1,1.7-2.4,2.8-3.3
			c0.6,0.2,0.6,0.7,0.7,1.1c1.9,6.5,3.8,13,5.7,19.5c1,3.5,2.1,7,3.1,10.5C221.3,225.3,221.3,225.9,221.4,226.6L221.4,226.6z"/>
	</g>
	<g id="BLANCO">
		<path class="st2" d="M168.4,286.5c-1.2-3.3-2-6.8-2.6-10.3c0.9,0.2,2.4,0.9,3.8,2C169.2,280.9,168.8,283.7,168.4,286.5z"/>
		<path class="st2" d="M225,346.6c-2.5-2.4-4.9-4.8-7.4-7.3c-1-1-1.9-1.9-2.9-2.9c-0.1-1.3-0.3-2.6-0.4-3.9c0.2,0,0.4,0,0.6,0
			c0.4,0.4,0.7,0.8,1.1,1.2c2.6,2.3,5.2,4.6,7.8,7c0.3,0.5,0.8,0.9,1.6,1.4c-0.4-0.8-0.7-1.3-1.2-1.6c-1.1-1.2-2.2-2.4-3.3-3.5
			c-1.8-1.7-3.8-3.4-5.6-5.1l0,0c-0.7-0.7-1.2-1.6-1.4-2.6c-0.1-0.3-0.2-0.7-0.3-1c0.1-0.2,0.3-0.4,0.4-0.6c2.7,2.4,5.3,4.8,8,7.2
			c0.8,0.8,0.8,0.8,1.7,1.1c-0.5-0.5-0.9-0.9-1.2-1.3c-1.8-1.8-3.5-3.6-5.3-5.4c-2-1.9-4-3.8-5.9-5.8c-0.5-0.5-0.9-0.6-1.3,0
			c-1.2-0.8-1.8-1.8-1.9-3.1c-0.1-0.8-0.2-1.5-0.3-2.3c-0.4-2-1.7-2.4-3.4-1.3c-0.1,0.1-0.2,0.1-0.3,0.2c-1.2-0.9-3.6-3.4-4.4-4.6
			c0.9-2,0.9-2,0.4-4.4c-1-4.6-2-9.1-3-13.7c-0.1-0.5-0.2-1.1-0.3-1.6c-0.2-3.9-0.3-7.9-0.4-11.8c0.2-0.1,0.2-0.2,0.4-0.3
			c1.7-0.5,3.4-1.1,5.2-1.7c0.8,2.5,1.1,4.9,1.6,7.4c0.5,2.4,1,4.8,1.5,7.2c0.5,2.5,1,4.9,1.5,7.4c0.5,2.4,1,4.8,1.5,7.2
			c0.7,0.5,1.4,1,2.1,1.5c5.3,4,10.7,8,15.9,12c3,2.3,2.3,1.4,3.1,4.9c2.5,11.4,5,22.8,7.4,34.3c0.7,3.3,1.3,6.7,1.9,10.1
			c0.3,1.4,0.1,2.6-0.6,3.8c-1.5,2.6-2.9,5.4-4.4,8c-3.1,5.4-6.2,10.7-9.3,16c-0.3,0.5-0.6,1-0.9,1.5c-1.3-0.7-4.5-3.1-6.1-4.5
			c-0.3-6.5-0.5-13.2-0.8-19.9c0.4,0.4,0.5,1,0.6,1.5c0.9,4,1.9,8.1,2.8,12.1c0.1,0.6,0.2,1.3,0.7,1.9c0.1-0.3,0.2-0.5,0.2-0.6
			c-0.2-2.6-0.4-5.3-0.7-7.9c-0.9-8.1-2.5-16-4.1-23.9c-0.2-1.2-0.3-2.4-0.4-3.6c-0.2-3.7-0.3-7.4-0.4-11.1c0-0.6-0.1-1.2,0.1-1.8
			c3,2.6,5.8,5.1,8.7,7.7c0.9,0.9,1.9,1.7,2.9,2.6c0.6,0.7,0.6,0.7,1.5,0.9c-0.5-0.5-0.9-1-1.3-1.4c-0.9-0.9-1.8-1.8-2.6-2.6
			c-2-2-3.9-4-6.2-5.7c-0.9-0.7-1.7-1.5-2.4-2.4c-0.9-1.1-0.9-1.1-0.8-3.3c0.5-0.2,0.6,0.2,0.9,0.4c3,2.7,6,5.4,8.9,8
			c0.4,0.6,0.9,1,1.8,1.6C225.9,347.4,225.5,346.9,225,346.6z M228.3,367.5c1.5,1.6,1.5,1.6,2.5,1.9c-0.7-0.8-1.2-1.6-2-2.1
			c-0.2-0.1-0.3-0.3-0.5-0.4c-0.3-0.4-0.6-0.8-0.9-1.1c-3-2.9-6-5.8-9-8.7c-0.1-0.1-0.3-0.3-0.4-0.3c-0.1,0-0.4,0-0.5,0.1
			c-0.1,0.1-0.2,0.3-0.1,0.5c0.1,0.2,0.2,0.4,0.4,0.6c3.4,3.1,6.8,6.2,10.2,9.3C228.1,367.3,228.2,367.4,228.3,367.5z M228.2,379.7
			c-0.8-1.1-1.6-2.2-2.4-3.3c0-0.1,0-0.1-0.1-0.2c-2.3-3.1-4.6-6.2-6.9-9.4c-0.1-0.1-0.3-0.2-0.4-0.3c-0.1,0-0.3,0-0.3,0
			c-0.1,0.1-0.3,0.3-0.3,0.4c0,0.2,0.2,0.4,0.3,0.6c2.4,3.1,4.9,6.2,7.3,9.3c0.8,1,1.5,2,2.3,3c0.5,0.9,0.5,0.9,1.4,1.3
			C228.8,380.5,228.7,380,228.2,379.7z M227.1,357.6c1.3,1.4,1.3,1.4,2.1,1.6c-0.5-0.7-1-1.4-1.7-1.9c-3.6-3.5-7.2-7-10.8-10.5
			c-0.1-0.1-0.3-0.2-0.5-0.3c-0.1,0-0.3,0-0.3,0.1c-0.1,0.1-0.2,0.4-0.2,0.4c0.3,0.4,0.6,0.8,0.9,1.1
			C220.2,351.3,223.6,354.5,227.1,357.6z M231,374.3c-1-1.1-2-2.2-3.1-3.2c-2.7-2.6-5.4-5.2-8.2-7.8c-0.2-0.2-0.4-0.3-0.5-0.4
			c-0.5,0.1-0.7,0.4-0.4,0.8c0.8,0.8,1.6,1.6,2.4,2.4c3.2,2.9,6.5,5.9,9.7,8.8c0.3,0.4,0.5,0.7,1.2,0.8
			C231.9,375.1,231.5,374.6,231,374.3z M228.9,363.7c0.7,0.7,0.7,0.7,1.5,1c-0.5-0.5-0.8-0.8-1.1-1.2c-0.4-0.5-0.9-1-1.3-1.5
			c-3.4-3.3-6.8-6.6-10.2-9.9c-0.1-0.1-0.3-0.2-0.5-0.3c-0.1,0-0.3,0.1-0.5,0.2c-0.1,0.1-0.1,0.3-0.1,0.3c0.3,0.4,0.7,0.9,1,1.2
			C221.5,357,225.2,360.3,228.9,363.7z M220.5,392.3C220.5,392.2,220.6,392.2,220.5,392.3c0.1-0.1,0.1-0.2,0.1-0.3
			c-0.1,0-0.1,0.1-0.1,0.1C220.4,392.2,220.5,392.2,220.5,392.3z"/>
		<path class="st2" d="M116.5,162.4c1.5-1.7,2.9-3.3,4.4-5c1.1-1.3,2.3-2.6,3.4-4c0.6-0.8,1.1-1.7,1.5-2.6c0.6-1.4,0.2-2.5-1-3.5
			c-0.7-0.6-1.5-1-2.3-1.2c-0.2,0.1-0.3,0.2-0.3,0.3c-1.7,2.9-3.9,5.3-6,7.8c-1.4,1.6-2.8,3.3-4.2,4.9c-1.5,1.8-2.8,3.8-3.8,5.9
			c-2.4,4.8-4.5,9.7-6.6,14.6c-5.6,13.1-11,26.3-15.8,39.8c-2.1,5.7-3.8,11.5-5.6,17.3c-2.6,8.7-5.1,17.5-7.6,26.2
			c-1.3,4.7-3.1,9.2-4.9,13.7c-3.3,8.8-6.7,17.6-10.1,26.4c-0.3,0.8-0.6,1.6-0.8,2.4c-0.1,0.3-0.1,0.7-0.2,1c0.5,0.3,0.9,0.2,1.3,0
			c0.9-0.5,1.6-1.1,2.1-1.9c1-1.3,1.9-2.6,2.8-4c2.5-4,4.6-8.2,6.5-12.4c3.2-7.1,6.2-14.2,9.3-21.3c7-16.3,13.4-32.9,19.1-49.7
			c3.5-10.2,6.7-20.5,9.8-30.9c0.3-1.2,0.8-2.3,1.5-3.3c1.5-2.2,3.1-4.4,4.7-6.6c7.8-10.2,16.1-20,24.5-29.7
			c6.8-7.8,13.8-15.5,21.2-22.8c1.8-1.8,3.8-3.5,5.7-5.2c1.4-1.2,2.9-2.1,4.6-2.7c6.4-2.5,13-4.5,19.7-6.3
			c11.6-3.1,23.4-5.6,35.3-7.9c5.5-1,11.1-1.9,16.6-2.9c4.7-0.9,9.3-1.8,13.9-2.7c4.5-0.9,9.1-1.8,13.6-2.7c0.2,0,0.3,0,0.6,0
			c-0.1,0.2-0.1,0.4-0.2,0.5c-20.9,27.4-41.7,54.8-62.6,82.2c-0.1,0.1-0.2,0.1-0.4,0.2c0-0.2-0.1-0.5,0-0.7
			c0.4-3.4,0.7-6.8,1.4-10.1c0.6-2.7,1.4-5.3,3.1-7.6c1-1.4,1.9-2.8,2.7-4.2c0.4-0.6,0.6-1.3,0.8-2c0.1-0.5-0.1-0.8-0.5-1
			c-0.5-0.3-1-0.3-1.6-0.2c-0.8,0.2-1.5,0.6-2,1.2c-0.8,0.9-1.6,1.8-2.3,2.8c-2.5,3.8-4.3,7.9-5.5,12.3c-0.3,1.1-0.4,2.4-0.5,3.6
			c-0.4,3.1-0.7,6.2-1.1,9.3c-0.2,1.8-0.8,3.6-1.4,5.4c-0.5,1.4-1.4,2.7-2.4,3.8c-0.8,0.9-1.8,1.4-2.9,1.6c-0.7-1.2-2.4-6-3.6-10.5
			c0.2-0.3,0.5-0.7,0.7-1.1c1.4-1.8,2.8-3.6,4.1-5.5c0.4-0.5,0.8-1.1,1-1.7c2.8-6.2,5.6-12.3,8.4-18.5c0.1-0.3,0.2-0.6,0.4-1.1
			c-0.4,0-0.6-0.1-0.8-0.1c-2.2,0.2-4,1.3-5.3,3.1c-0.8,1.1-1.5,2.3-2,3.6c-0.8,2-1.5,4.1-2.2,6.1c-0.6,1.6-1.1,3.2-1.8,4.7
			c-0.5,1.1-1.1,2.1-1.8,3.1c-1.4,1.7-3.2,2.4-5.4,2c-1.7-0.3-3.2-0.9-4.8-1.8c0.8-1.2,1.7-2.2,2.5-3.2c0.8-1,1.5-2,2.3-3
			c0.8-1,1.6-2.1,2.4-3.1c0.8-1,1.5-2,2.3-3c-0.7-1-1.5-1.6-2.5-2c-1.1-0.4-2.2-0.3-3.3,0.3c-1,0.6-1.7,1.3-2.3,2.2
			c-1.2,1.6-2.1,3.4-2.8,5.2c-1.9,4.4-3.1,9.1-4.2,13.7c-1.4,6.1-2.5,12.3-3.2,18.6c-0.2,2.3-0.1,4.6-0.2,6.8c0,0.9,0,1.8,0,2.8
			c-1,0.5-1.9,0.9-2.9,1.4c-1,0.5-2,1.1-3,1.7c-0.9,0.5-1.7,1.2-2.9,1.9c0.6-6.7,1.3-13,2.2-19.2c0.9-6.3,1.8-12.6,2.7-18.8
			c-0.4-0.4-0.8-0.3-1.1-0.1c-0.8,0.4-1.4,1.1-2,1.8c-0.9,1.3-1.5,2.7-2.1,4.2c-1.1,3.1-1.9,6.3-2.5,9.6c-0.9,4.7-1.5,9.4-1.9,14.1
			c-0.3,3.9-0.5,7.9-0.8,11.8c0,0.4-0.1,0.7-0.1,1.1c0,0.6-0.2,1.2-0.6,1.6c-0.3,0.3-0.5,0.6-0.8,1c-4.7,6-7.4,12.9-8,20.5
			c-0.8,11.4,2.7,21.4,10.6,29.8c0.2,0.2,0.3,0.4,0.5,0.5c0.5,0.4,0.7,0.9,0.8,1.6c0.4,2.9,0.9,5.8,1.3,8.7
			c1.1,6.4,2.4,12.7,4.2,18.9c0.3,1.1,0.5,2.2,0.2,3.4c-0.2,0.9-0.4,1.9-0.4,2.8c0,0.9-0.5,1.5-1.2,2.1c-3.9,3.2-7.7,6.4-11.6,9.7
			c-1,0.8-1.9,1.6-3,2.5c-0.4-0.8-0.4-1.6-0.4-2.3c-0.2-2.8-0.4-5.5-0.1-8.3c0.1-0.8,0.2-1.7,0.5-2.5c0.3-0.8,0.8-1.5,1.2-2.4
			c-0.2-0.5-0.8-0.6-1.4-0.7c-0.6,0-1,0.2-1.4,0.7c-0.6,0.7-0.9,1.6-1.1,2.4c-0.3,1.8-0.6,3.6-0.7,5.3c-0.1,3-0.2,6,0.2,9
			c0.1,1,0,1.9-0.2,2.8c-0.6,2.8-1,5.7-1.5,8.5c-0.4,2.1-0.7,4.3-1.1,6.4c0,0.1-0.1,0.3-0.2,0.5c-0.6-0.4-0.7-1.1-0.9-1.6
			c-2.3-5.5-4.6-10.9-6.9-16.4c-1-2.4-2.2-4.8-3.3-7.2c-0.6-1.2-1.3-2.4-2-3.6c-0.4-0.7-0.9-1.4-1.7-1.9c-0.9,0.2-1.5,0.7-1.9,1.5
			c-0.5,1.1-1.1,2.2-1.4,3.3c-1,3.2-1.4,6.4-1.8,9.7c-0.5,4.4-0.8,8.8-0.8,13.3c-0.1,3.8-0.2,7.7-0.2,11.5c0.1,4.2,0.1,8.4,0.7,12.6
			c0.5,3.6,1,7.2,1.6,10.9c0.7,4.5,1.3,9,2,13.5c0.6,4,1.2,7.9,1.7,11.9c0.4,3.4,0.8,6.9,1.2,10.4c0,0.4,0,0.8,0,1.5
			c-0.7-0.6-0.8-1.2-1.1-1.8c-2.1-5-4.2-10-6.3-14.9c-5.9-13.3-11.8-26.7-17.7-40c-6.3-14.2-12.7-28.5-18.7-42.8
			c-1.7-4.1-3.2-8.3-4.2-12.6c-0.8-3.8-1.2-7.6-1.3-11.4c-0.1-3.8,0-7.6-0.1-11.3c0-0.7,0-1.3,0-1.9c-0.4-0.2-0.6,0-0.7,0.3
			c-0.6,1.4-1.3,2.8-1.8,4.3c-2.8,7.7-5.5,15.4-8.2,23c-0.8,2.4-1.7,4.7-2.6,7.1c-0.4,1-0.9,2-1.5,2.9C59,321,52.1,331.8,45.2,342.6
			c-0.3,0.5-0.5,1.1-1.2,1.4c0.1-1.8,0.5-3.5,0.9-5.2c1.3-5.9,2.6-11.8,3.9-17.7c0.8-3.7,1.5-7.4,1.9-11.2c0.2-2.2,0.3-4.4,0.5-6.6
			c0.3-3.5,0.6-7,0.9-10.6c0.3-4,0.6-8,0.9-12c0.2-3.4,0.4-6.8,0.6-10.2c0.2-4.3,0.1-8.6-0.1-12.9c-0.2-4.2-0.6-8.4-0.5-12.6
			c0.1-4.6,0.6-9.1,1.7-13.5c0.7-2.8,1.8-5.5,3.5-7.8c1.8-2.6,3.8-5.1,5.7-7.6c2-2.6,4.1-5.1,6.2-7.7c1-1.2,1.9-2.5,2.3-4.2
			c-0.2-0.3-0.4-0.7-0.7-0.9c-1.3-1.1-2.8-1.9-4.6-1.8c-0.8,0-1.5,0.4-2.1,0.9c-0.3,0.3-0.5,0.6-0.8,1c-5.8,7.5-11.6,15-17.4,22.5
			c-2.7,3.6-5.3,7.3-7.4,11.3c-2.8,5.3-4.6,10.9-5.3,16.9c-0.3,2.2-0.4,4.4-0.6,6.6c0,0.2-0.1,0.5-0.1,0.7c-0.4-0.1-0.3-0.4-0.3-0.6
			c-0.1-0.4-0.1-0.8-0.1-1.3c-0.2-5.7-0.3-11.4-0.5-17.1c-0.2-5.3-0.3-10.6,0-15.8c0.5-11.3,3.3-22,8.1-32.2c1.9-4,4-7.8,6.5-11.4
			c3-4.5,6.1-8.9,9.2-13.4c1-1.4,2-2.9,2.6-4.5c0.4-1,1.1-1.9,1.8-2.7c1.3-1.6,2.6-3.2,4-4.7c3.5-3.9,7.2-7.5,11.2-10.9
			c1.1-0.9,2.3-1.7,3.4-2.6c0.2-0.1,0.4-0.3,0.6-0.4c-0.5-1-1.2-1.4-2.1-1.4c-0.9,0-1.8,0.1-2.7,0.3c-1.9,0.5-3.7,1.3-5.5,2.2
			c-4.5,2.3-8.6,5-12.7,7.9c-3.8,2.6-7.2,5.6-10.6,8.7c-4.1,3.6-8.2,7.2-12.3,10.8c-1.3,1.1-2.7,2.2-4.2,3.1c-0.4-0.4,0-0.7,0.2-0.9
			c3.5-5.6,7.1-11.1,10.6-16.7c0.6-1,1.2-2,1.7-3c11.2-23.2,22.4-46.4,33.6-69.7c0.3-0.6,0.6-1.2,0.8-1.8c0.2-0.5-0.1-1-0.7-1
			c-1.1-0.1-2.2,0.2-3,0.9c-0.8,0.8-1.6,1.6-2.2,2.6c-1,1.6-1.9,3.3-2.7,5.1c-1,2.3-2,4.6-2.9,7c-0.9,2.1-1.8,4-2.9,6
			c-3.3,5.8-6.6,11.5-10,17.3c-3.4,5.8-7.2,11.3-11.6,16.5c-4.8,5.7-10.3,9.7-16.7,13.7c-0.5,0.3-7.7,5-8.2,5.4
			c-0.4-0.4,3.9-4.8,5.4-5.9c1.2-1.7,4.5-3.9,5.8-5.5c3.2-3.8,5.7-5.2,8.9-8.9c3.9-4.4,7.6-8.9,11.1-13.7c4-5.4,7.3-11.1,9.9-17.3
			c2.4-5.6,4.9-11.1,7.4-16.6c3.2-7,7.6-13.2,13-18.6c4.1-4.1,8.3-8,12.6-11.8c6.4-5.5,13.6-9.9,21.6-12.6c4.9-1.6,9.8-2.6,14.9-3.2
			c6.8-0.7,13.6-0.7,20.5-0.4c3,0.1,6,0.1,9,0.1c2.6,0,5.2,0,7.7,0.1c3.1,0.1,6.2,0.6,9.3,1.2c1,0.2,2,0.3,3,0.4
			c2.8,0.4,5.5,1.2,8.2,2.1c6.2,2.1,12.1,4.8,18.1,7.6c1.6,0.8,3.3,1.5,4.9,2.3c0.5,0.2,1,0.4,1.5,0.6c0.4-0.6,0.2-1.1,0.1-1.6
			c-0.4-1.2-1-2.3-1.9-3.2c-1.2-1.3-2.5-2.4-4-3.4c-2.3-1.6-4.7-2.8-7.2-4c-5.6-2.6-11.3-4.6-17.2-6.4c-8.2-2.6-16.5-4.6-24.8-6.8
			c-1.7-0.4-3.3-0.9-5-1.4c-0.3-0.1-0.6-0.3-1-0.5c1-0.7,2-1,3.1-1.3c3.2-1,6.4-1.6,9.6-2.1c4.8-0.8,9.7-1.5,14.6-1.9
			c4.4-0.4,8.8-0.7,13.3-0.7c0.9,0,1.8-0.1,2.7,0c1.6,0,3.2,0.6,4.7,1.1c4.6,1.5,9,3.4,13.3,5.4c9.9,4.5,19.6,9.5,29.2,14.7
			c3.3,1.8,6.5,3.6,9.8,5.4c-0.3,0.5-0.8,0.2-1.2,0.3c-0.2,0-0.5,0-1-0.1c0.4,0.4,0.6,0.6,0.8,0.7c1.8,1,3.6,1.9,5.4,2.9
			c3.4,1.9,6.7,3.9,9.9,6.2c1.3,0.9,2.6,1.7,3.9,2.5c0.7,0.4,1.5,0.8,2.2,1.1c1,0.5,2.1,0.7,3.1,0.1c3.7,2.3,7.4,4.6,10.9,7.2
			c0.3-0.4,0.1-0.7-0.1-0.9c-1-1.2-1.9-2.5-3-3.6c-2-2.1-4.1-4-6.4-5.7c-4.5-3.4-9.1-6.8-13.7-10.2c-5-3.6-10.1-7.2-15.1-10.8
			c-6.7-4.8-13.9-8.8-21.3-12.3c-1.2-0.6-2.4-1.1-3.6-1.7c-0.4-0.2-0.7-0.4-1.3-0.8c4.1,0.5,7.7,1.2,11.4,1.8
			c3.4,0.5,6.4,1.8,9.4,3.4c9.3,5,18.2,10.4,26.6,16.7c0.2,0.1,0.4,0.2,0.6,0.4c0.1,0.1,0.3,0.2,0.4,0.3c0.6,0.6,0.6,0.6,1.4,0.8
			c-0.1-0.6-0.5-0.9-0.9-1.2c0-0.1-0.1-0.2-0.2-0.2l0,0c-2.4-2.7-5.1-5.3-7.8-7.7c-2.7-2.4-5.5-4.6-8.5-6.6c0.2-0.4,0.5-0.3,0.8-0.2
			c2.8,1,5.7,2,8.5,3c0.7,0.2,1.3,0.6,1.9,1c9.6,6.2,18.5,13.3,26.8,21.1c1.5,1.4,2.9,3,4.4,4.5c0.2,0.2,0.4,0.5,0.6,0.8
			c-5.4,7-10.7,14-16,21c-0.7,0.1-0.9-0.4-1.3-0.7c-2.6-2.3-5.6-3.9-9.1-4.5c-1.8-0.3-3.6-0.3-5.4-0.5c-0.2,0-0.5-0.1-0.6,0.4
			c0.3,0.2,0.6,0.4,1,0.5c1.9,0.8,3.7,1.7,5.4,2.8c1.4,0.9,2.7,2,3.9,3.2c1,1.1,1.7,2.3,2.2,3.6c-0.4,0.9-0.9,1.5-1.8,1.7
			c-1.2,0.3-2.3,0.7-3.5,0.9c-3.6,0.7-7.4,1-11.1,1.4c-0.9,0.1-1.8,0.1-2.7,0c-1.1,0-2.1-0.5-2.8-1.4c-0.3-0.3-0.5-0.7-0.8-1
			c-1.3-1.9-3-3.2-5-4.3c-2.9-1.5-5.9-2.7-8.9-3.8c-4-1.4-8.1-2.6-12.3-3.3c-2.1-0.3-4.3-0.6-6.4-0.3c-0.3,0-0.7,0.1-1,0.2
			c0.1,0.5,0.5,0.6,0.8,0.7c3.1,1.5,6.2,2.9,9.2,4.5c5,2.6,9.7,5.7,14,9.4c0.5,0.4,1,0.9,1.5,1.3c-0.4,0.7-1,0.7-1.6,0.9
			c-2.7,0.8-5.4,1.6-8.2,2.2c-6.3,1.3-12.6,2.6-18.9,3.7c-6.2,1.1-12.3,2.5-18.5,3.9c-7.1,1.6-14.3,3.2-21.3,5.3
			c-2.8,0.8-5.5,1.8-8.2,2.6c-1.5,0.5-2.7,1.2-3.9,2.2c-1.6,1.5-3.3,2.9-4.9,4.5c-5.5,5.7-11.1,11.5-16.5,17.3
			c-6.7,7.2-13.4,14.4-20.1,21.6c-1.2,1.3-2.5,2.5-3.8,3.8c0,0,0.1-0.1,0.1-0.1C116.6,162.5,116.5,162.5,116.5,162.4z M202.2,87.1
			c-0.6-0.5-1.4-0.8-2.2-1c-2.4-0.6-4.9-0.8-7.3-0.7c-4.1,0.1-8.1,0.6-12.2,1.2c-6.5,1.1-12.9,2.5-19.3,4.2c-3.9,1-7.7,2.2-11.6,3.3
			c-5.6,1.6-10.8,4.2-15.8,7.3c-5.9,3.7-11.7,7.8-17.3,12C108,120,99.8,127,92.4,134.9c-12.2,13-23,27-32.6,42
			c-3.5,5.5-6.8,11.1-10.2,16.7c-1.2,1.9-1.8,4-1.9,6.1c-0.3,4.2-1.1,8.3-1.7,12.5c-0.2,1.7-0.3,3.5-0.5,5.2
			c-0.1,0.8,0.3,1.4,0.9,1.9c0.5,0.4,1,0.4,1.4-0.1c0.6-0.7,1-1.5,1.2-2.4c0.4-1.6,0.9-3.2,1.1-4.9c0.5-3.3,1.5-6.4,2.8-9.5
			c3-7.4,6.7-14.4,11-21.2c7.5-12,16.4-23.1,25.9-33.6c10-11,21-20.8,33-29.7c4.7-3.5,9.5-6.7,14.4-9.8c7.6-4.8,15.7-8.4,24.1-11.6
			c3.8-1.4,7.6-2.9,11.6-3.8c2.8-0.6,5.6-1.1,8.5-1.6c6.7-1.2,13.4-2.4,20.2-3.7C201.7,87.5,202.1,87.6,202.2,87.1z M117.7,348.8
			c0-0.6,0-1.2,0-1.8c-0.1-3.8-0.3-7.6-0.3-11.3c0-8.6-0.2-17.2,0.2-25.7c0.2-4.8,0.3-9.6,0.6-14.4c0.2-4.1,0.6-8.1,0.9-12.2
			c0.5-6,1.2-12.1,2-18.1c1-6.9,2.1-13.9,3.6-20.7c3.1-14.5,7.3-28.7,13-42.4c1.6-3.8,3.2-7.5,5.4-10.9c0.5-0.8,0.9-1.7,1.3-2.5
			c0.4-0.9,0.7-1.9,0.6-3c0-0.5-0.2-1.1-0.4-1.5c-0.3-0.6-1-0.8-1.5-0.5c-0.4,0.2-0.8,0.5-1.1,0.9c-0.5,0.5-0.9,1.1-1.3,1.7
			c-4.3,6.5-7.9,13.3-11,20.4c-6,13.6-10,27.7-12.6,42.3c-0.8,4.2-1.4,8.4-2,12.6c-0.5,3.3-0.8,6.5-1.1,9.8
			c-0.4,3.8-0.6,7.5-0.9,11.3c-0.2,3.9-0.5,7.8-0.6,11.7c-0.2,9.4-0.2,18.7,0.2,28.1c0.2,3.5,0.3,7.1,0.5,10.6
			c0.2,3.7,0.5,7.3,0.7,10.9c0.1,0.9,0.2,1.8,0.4,2.7C114.7,348.3,115.8,349,117.7,348.8z M48.5,154.5c0.9-0.2,1.4-0.3,1.8-0.4
			c1.3-0.6,2.7-1.1,3.9-1.8c3.4-1.9,6.2-4.4,8.8-7.3c3.4-3.8,6.3-8,9-12.4c4-6.6,7.4-13.6,10.8-20.5c3.6-7.3,7.1-14.7,10.8-21.9
			c2.3-4.6,4.9-9,7.9-13.3c2-2.9,4.3-5.6,6.9-8c1.4-1.3,3-2.4,4.7-3.2c1-0.5,2.1-1,3.1-1.5c1.3-0.6,2.6-1.3,3.8-2
			c0.6-0.4,1.1-0.9,1.6-1.4c0.5-0.5,0.4-1,0-1.4c-0.2-0.3-0.5-0.5-0.8-0.7c-2.2-1.5-4.6-1.7-7-1.2c-2,0.5-3.7,1.4-5.3,2.5
			c-2.5,1.7-4.8,3.8-6.9,6.1c-3.6,3.9-6.8,8.1-9.7,12.5c-5.4,7.9-10.1,16.2-14.4,24.7c-5.3,10.5-11.3,20.6-17.1,30.8
			c-3.4,6.1-7.1,12.1-10.7,18.1C49.3,152.9,49,153.5,48.5,154.5z M235.2,52.8c0.7,0.2,1.1,0.4,1.6,0.5c9.2,2.5,18.1,6,26.3,10.8
			c1.2,0.7,2.4,1.4,3.6,2c0.2,0.1,0.4,0,0.7,0.1c-0.2-1-0.8-1.5-1.5-1.9c-1.6-1.1-3.2-2.3-5-3.2c-4.5-2.6-9.1-5.1-13.7-7.5
			c-3.3-1.8-6.8-3-10.4-3.9c-0.4-0.1-0.9-0.1-1.5-0.2C235.3,50.5,235.2,51.6,235.2,52.8z"/>
		<path class="st2" d="M283.6,435.1c-1.7,0.3-44,1.4-45.7,1.2c0.3-0.5,0.5-1,0.7-1.4c3.2-5.7,6.4-11.4,9.7-17.1
			c0.5-0.9,0.9-1.8,1.4-2.7c0.9-1.6,1.1-3.3,0.7-5.1c-0.9-4.6-1.7-9.3-2.7-13.9c-1.5-7.2-3.1-14.4-4.6-21.6
			c-2.4-11.3-4.9-22.6-7.3-33.9c-1.1-4.9-2.2-9.7-3.3-14.6c-0.1-0.6-0.3-1.2-0.5-1.7c-0.4-1-0.9-1.9-1.8-2.6c-2.1-1.7-4.2-3.4-6.4-5
			c-3.8-2.9-7.6-5.7-11.4-8.5c-0.2-0.1-0.4-0.3-0.6-0.5c-0.6-3-1.2-6-1.9-9.1c-1.2-5.8-2.4-11.5-3.5-17.3c-0.2-1.1-0.5-2.1-1-3.1
			c-0.1-0.3-0.2-0.5-0.3-0.7c0.2-0.8,0.9-0.9,1.4-1.2c3.2-2,6.1-4.4,8.6-7.3c5.2-5.9,8.3-12.7,9.3-20.5c0.2-2,0.3-3.9,0.5-6.2
			c21.3-18.8,42.7-37.7,64.2-56.6c21.4-18.9,42.8-37.8,64.3-56.7c0.2,0.4,0.4,0.7,0.5,0.9c14.5,36,29,71.9,43.5,108
			c-0.4,0.3-0.8,0.5-1.1,0.7c-1.3,0.5-2.6,1-3.9,1.3c-9.3,2.1-18.6,4.1-27.9,6.2c-1.2,0.3-2.3,0.5-3.6,0.8c0,0.5-0.1,1,0,1.5
			c0.2,4.6,0.7,9.1,1.3,13.6c0.7,5.1,1.3,10.1,2,15.2c0.7,4.9,1.3,9.7,2,14.6c0.7,4.8,1.3,9.6,2,14.4c0.6,4.7,1.3,9.4,1.9,14.1
			c0.7,4.8,1.3,9.6,2,14.4c0.2,1.7,0.5,3.4,0.7,5.1c-0.5,0.5-1.1,0.3-1.6,0.3c-10,0.1-20,0.2-30.1,0.3c-16.2,0.2-32.4,0.4-48.6,0.6
			c-0.4,0-0.8,0-1.4,0.1c-0.4,3.2-0.6,6.3-0.8,9.5c-0.3,3.1-0.5,6.2-0.7,9.3c-0.2,3.2-0.5,6.3-0.7,9.5c-0.2,3.1-0.5,6.2-0.7,9.3
			c-0.2,3.2-0.5,6.3-0.7,9.5c-0.2,3.1-0.5,6.2-0.7,9.3c-0.2,3.2-0.5,6.3-0.7,9.5c-0.2,3.1-0.5,6.2-0.7,9.3c-0.2,3.2-0.5,6.3-0.8,9.5
			C284.1,429,284,432.1,283.6,435.1z M278.5,241.6c6.9,18.4,13.9,36.8,20.8,55.2c0.1,0.4,0.3,0.7,0.5,1.1c1.8-0.4,9-3.1,10.2-3.8
			c-7.1-18.7-14.2-37.5-21.4-56.2c0-0.1-0.2-0.2-0.3-0.2C286.9,238,279.9,240.8,278.5,241.6z M317.7,273.8c-0.2-0.5-0.4-1.1-0.6-1.6
			c-3.6-9.5-7.2-18.9-10.8-28.4c-3.2-8.4-6.4-16.8-9.6-25.2c-0.2-0.5-0.3-1-0.8-1.4c-3.1,1.2-6.2,2.4-9.3,3.7
			c-0.1,0.1-0.2,0.2-0.4,0.4c0.1,0.3,0.2,0.7,0.4,1c1.7,4.5,3.4,9,5.1,13.4c5.1,13.4,10.1,26.8,15.2,40.2c0.2,0.6,0.3,1.3,0.8,1.7
			C310.8,276.8,316.4,274.6,317.7,273.8z M270.7,261.6c0.2,0.6,0.3,1,0.5,1.4c1.2,3.1,2.4,6.3,3.6,9.4c5.5,14.7,11.1,29.4,16.7,44.1
			c0.2,0.6,0.3,1.3,1,1.8c1.6-0.6,3.2-1.2,4.9-1.8c1.7-0.6,3.4-1.1,4.9-1.9c0-0.2,0.1-0.3,0.1-0.3c-4.7-12.4-9.4-24.9-14.1-37.3
			c-2.4-6.3-4.8-12.5-7.2-18.8c0-0.1-0.1-0.1-0.1-0.1c0,0-0.1-0.1-0.3-0.2C277.3,259,274.1,260.3,270.7,261.6z"/>
		<path class="st2" d="M183.8,282c0.9,0,1.8,0,2.6,0c0.9,0,1.8,0,2.7-0.1c0.8-0.1,1.7-0.2,2.6-0.2c0.1,0.4,0.2,0.8,0.2,1.1
			c0.1,4.7,0.3,9.5,0.4,14.2c0.1,4.3,0.3,8.6,0.4,13.1c0.4,0.5,0.9,1,1.4,1.5c4.6,4.9,9.3,9.9,13.9,14.8c0.7,0.8,1.6,1.6,2,2.5
			c0.4,1,0.3,2.1,0.3,3.2c0.4,10.5,0.9,21,1.3,31.5c0.2,4.1,0.2,8.3,0.2,12.4c0,0.4,0,0.7,0,1.1c0.1,1.5-0.4,2.8-1.3,4
			c-3,3.6-5.9,7.3-8.9,10.9c-2.9,3.5-5.8,7-8.8,10.5c-0.3,0.4-0.7,0.8-1.1,1.2c-0.5-0.5-0.8-0.8-1.2-1.2
			c-6.3-6.8-12.6-13.7-18.9-20.5c-2.2-2.4-1.8-1.5-1.9-4.4c-0.2-5.6-0.4-11.3-0.5-16.9c-0.2-9.4-0.2-18.7-0.4-28.1
			c0-1.3,0.3-2.4,1.2-3.4c3.5-4.1,6.9-8.3,10.3-12.5c1.3-1.5,2.5-3,3.9-4.5c0.6-0.6,0.7-1.3,0.7-2.1c-0.4-9.1-0.8-18.2-1.1-27.3
			C183.8,282.4,183.8,282.3,183.8,282z M202.2,365c-0.1-0.1-0.2-0.2-0.3-0.4c0-0.1-0.1-0.2-0.1-0.3c-2.3-3.1-4.5-6.2-6.8-9.3
			c-0.1-0.1-0.2-0.2-0.3-0.2c-0.2-0.1-0.4-0.1-0.5,0c-0.1,0.2-0.2,0.4-0.2,0.6c0.1,0.3,0.3,0.5,0.5,0.8c0.8,1.1,1.6,2.2,2.5,3.3
			c1.5,1.9,3,3.7,4.5,5.6c0.1,0.1,0.2,0.2,0.3,0.3c0.1,0.1,0.1,0.2,0.2,0.3c0.1,0.1,0.3,0,0.4,0c0-0.1,0-0.3,0-0.4
			C202.4,365.1,202.3,365.1,202.2,365z M200.4,336.5c0.1,0.1,0.1,0.2,0.2,0.3c0.7,1,1.5,2,2.2,2.9c0.1,0.1,0.2,0.1,0.5,0.2
			c-0.4-0.7-0.7-1.2-1-1.7c-0.4-0.6-0.9-1.2-1.3-1.8c0-0.1,0-0.2-0.2-0.2c-0.2-0.2-0.3-0.5-0.5-0.7c0-0.1-0.1-0.2-0.1-0.3
			c-2.3-3.2-4.6-6.4-7-9.5c0,0-0.1-0.1-0.1-0.1c-0.2-0.3-0.6-0.4-0.8-0.1c-0.1,0.2-0.1,0.5-0.1,0.6c0.1,0.3,0.4,0.6,0.6,0.9
			c1.4,1.9,2.8,3.7,4.2,5.6c0.9,1.2,1.9,2.3,2.8,3.5C200.1,336.1,200.3,336.3,200.4,336.5z M176.3,360.5c-0.5,0.8-1,1.5-1.5,2.3
			c-0.5,0.8-0.5,0.8-0.5,1.5c0.3-0.4,0.5-0.8,0.7-1.1c0.6-0.8,1.1-1.6,1.7-2.3c0.1-0.2,0.3-0.4,0-0.5
			C176.7,360.4,176.5,360.5,176.3,360.5z M201.7,349.8c0.5,0.9,1.2,1.7,2,2.5c0-0.3,0-0.5-0.2-0.7c-0.5-0.7-1-1.5-1.5-2.2
			c-0.2-0.3-0.4-0.6-0.6-0.9c-0.1-0.2-0.1-0.3-0.2-0.5c-2.4-3.3-4.9-6.7-7.3-10c0,0-0.1-0.1-0.1-0.1c-0.2-0.2-0.5-0.5-0.7-0.2
			c-0.1,0.1-0.1,0.5-0.1,0.6c0.1,0.3,0.4,0.6,0.6,0.9c1.8,2.4,3.6,4.8,5.4,7.1c0.7,0.8,1.4,1.7,2.1,2.5
			C201.3,349.2,201.5,349.5,201.7,349.8z M202.5,366.3c0.7,1.1,1.5,2.1,2.4,3c-0.6-1.2-1.1-2.4-2.1-3.4c-0.1,0-0.3-0.1-0.4-0.1
			C202.2,366,202.3,366.2,202.5,366.3z M204.1,378.9c-0.8-1.1-1.6-2.2-2.3-3.3c-0.2-0.3-0.4-0.6-0.6-0.9c-2-2.8-4.1-5.6-6.1-8.4
			c-0.2-0.3-0.4-0.6-0.9-0.5c-0.3,0.1-0.3,0.6,0,1.1c2.4,3.1,4.7,6.1,7.1,9.2c0.8,1,1.5,2,2.3,3c0.8,1.2,0.8,1.2,1.6,1.5
			C204.8,380,204.4,379.4,204.1,378.9z M177.4,369.9c-1.5,1.8-2.3,3.3-2.6,4.7c1.1-1.5,2-2.9,3-4.2c2.4-3.2,4.8-6.5,7.1-9.7
			c0.1-0.2,0.3-0.4,0.4-0.6c0.1-0.4-0.1-0.5-0.5-0.7c-0.2,0.3-0.5,0.6-0.8,0.9c-1.4,2-2.8,4-4.2,6
			C179,367.5,178.2,368.7,177.4,369.9z M177.3,360c2.4-3.3,4.8-6.5,7.2-9.8c0.1-0.2,0.3-0.4,0.3-0.6c0-0.2-0.2-0.3-0.4-0.6
			c-0.3,0.4-0.6,0.7-0.9,1.1c-1.2,1.8-2.5,3.5-3.7,5.3c-1,1.4-1.9,2.9-2.9,4.3c-0.1,0.2-0.5,0.4-0.2,0.7
			C177,360.6,177.2,360.3,177.3,360z M177.8,336.9c2.1-2.8,4.2-5.7,6.4-8.5c0.5-0.7,1-1.5,1.5-2.2c0.1-0.2,0.2-0.4,0.2-0.7
			c0-0.1-0.1-0.2-0.2-0.3c-0.1-0.1-0.3-0.1-0.3,0c-0.2,0.2-0.5,0.4-0.6,0.6c-2,2.8-4,5.7-6,8.6c-0.5,0.7-0.9,1.4-1.3,2.1
			c-1.3,1.7-1.7,2.4-2,3.9C176.3,339,177,337.9,177.8,336.9z M176.5,377.2c-0.7,1.2-1.5,2.3-2.2,3.5c0,0.1,0,0.2,0,0.3
			c0.1,0,0.2,0,0.3-0.1c0.8-1.1,1.5-2.1,2.3-3.2c2.4-3.2,4.8-6.4,7.1-9.7c0.4-0.5,0.7-1.1,1-1.7c0.2-0.3,0-0.6-0.6-0.7
			C182,369.5,179.1,373.3,176.5,377.2z M177,343c0.7-0.9,1.4-1.8,2.1-2.7c1.9-2.7,3.9-5.3,5.8-8c0.4-0.5,0.3-1,0-1.1
			c-0.5-0.1-0.6,0.2-0.8,0.5c-2.2,3.1-4.4,6.3-6.6,9.4c-0.3,0.4-0.6,0.9-0.8,1.4c-0.6,0.9-1.2,1.9-1.9,2.8c-0.1,0.2-0.2,0.4-0.3,0.7
			c0.2-0.1,0.3-0.1,0.4-0.2C175.7,344.9,176.4,344,177,343z M202.9,355.6c-0.3-0.4-0.5-0.8-0.8-1.2c-2.5-3.5-5.1-6.9-7.6-10.4
			c-0.1-0.1-0.2-0.3-0.4-0.4c-0.1-0.1-0.4-0.1-0.5,0c-0.1,0.1-0.2,0.3-0.2,0.4c0.3,0.5,0.5,0.9,0.9,1.4c2.7,3.5,5.5,7.1,8.2,10.6
			c1.2,1.8,1.2,1.8,2.2,2.3C204.1,357.3,203.7,356.4,202.9,355.6z M202.6,343.4c-0.2-0.3-0.4-0.6-0.6-0.9c-2.6-3.6-5.2-7.2-7.8-10.7
			c-0.1-0.1-0.2-0.3-0.4-0.4c-0.1-0.1-0.4-0.1-0.5,0c-0.1,0.1-0.2,0.3-0.2,0.4c0.2,0.4,0.5,0.8,0.8,1.2c2.8,3.6,5.6,7.2,8.4,10.8
			c0.2,0.3,0.4,0.6,0.6,0.9c0.2,0.2,0.4,0.5,0.5,0.7c0.2,0.2,0.3,0.6,0.9,0.5C203.7,344.9,203.2,344.1,202.6,343.4z M176.6,349.5
			c-0.5,0.8-1,1.6-1.5,2.4c-0.1,0.2-0.2,0.4-0.3,0.7c0.3-0.1,0.4,0,0.5-0.1c0.6-0.8,1.2-1.6,1.7-2.5c2-2.6,4-5.3,5.9-7.9
			c0.8-1.1,1.5-2.2,2.3-3.2c0.2-0.2,0.3-0.5,0.4-0.8c0-0.1-0.1-0.4-0.2-0.5c-0.1-0.1-0.4-0.1-0.5,0c-0.2,0.2-0.4,0.4-0.6,0.7
			c-1.4,2-2.8,4-4.2,6C178.9,346,177.8,347.8,176.6,349.5z M203.3,371.8c-0.1-0.2-0.2-0.3-0.3-0.5c-2.8-3.8-5.5-7.6-8.3-11.5
			c-0.1-0.1-0.3-0.3-0.4-0.3c-0.1-0.1-0.3-0.1-0.3,0c-0.1,0.1-0.3,0.3-0.3,0.4c0.2,0.5,0.5,1,0.8,1.4c2.8,3.6,5.6,7.3,8.5,10.9
			c0.3,0.4,0.5,0.8,0.8,1.2c0.3,0.3,0.4,0.8,1.3,1C204.3,373.4,204,372.5,203.3,371.8z M175.8,356.8c2.8-3.8,5.6-7.5,8.3-11.3
			c0.3-0.4,0.6-0.9,0.9-1.4c0.1-0.1-0.1-0.4-0.2-0.6c0-0.1-0.4,0-0.5,0.1c-0.2,0.2-0.4,0.4-0.6,0.7c-1.5,2.2-3.1,4.4-4.6,6.6
			c-1.3,1.9-2.5,3.8-3.8,5.7c-0.5,0.5-0.8,1.1-1.1,2.1C175.2,358.1,175.5,357.5,175.8,356.8z M175.4,367.4c-1,1.5-1,1.5-1,2.4
			c0.5-0.8,1-1.5,1.4-2.2c2-2.7,4.1-5.4,6.1-8.2c0.9-1.2,1.8-2.5,2.7-3.8c0.2-0.2,0.2-0.5,0.3-0.7c-0.5-0.6-0.8-0.3-1.1,0.1
			c-1.3,1.9-2.7,3.8-4,5.7C178.4,363,176.9,365.2,175.4,367.4z M200.2,384.3c0.1,0.5,0.2,1,0.9,1.3c-0.1-0.7-0.3-1.3-0.7-1.8
			c-0.5-1.1-0.9-2.2-1.5-3.3c-1.8-3.5-3.5-7.1-5.3-10.6c-0.1-0.2-0.2-0.4-0.4-0.6c-0.1-0.1-0.4-0.1-0.5,0c-0.1,0.1-0.3,0.3-0.2,0.4
			c0.2,0.5,0.4,1,0.6,1.5C195.5,375.5,197.9,379.9,200.2,384.3z M203.7,361.7c-0.4-0.6-0.8-1.2-1.2-1.8c-2.5-3.4-5-6.9-7.5-10.3
			c-0.1-0.1-0.2-0.3-0.4-0.4c-0.1-0.1-0.4-0.1-0.5,0c-0.1,0.1-0.2,0.3-0.2,0.4c0.2,0.4,0.4,0.8,0.7,1.2c2.9,3.7,5.8,7.5,8.7,11.2
			c0.1,0.2,0.3,0.5,0.4,0.7c0.1,0.2,0.3,0.4,0.4,0.6c0.2,0.2,0.3,0.5,0.7,0.4C204.6,363,204.2,362.3,203.7,361.7z M179.4,383
			c-0.3,0.7-0.6,1.4-0.9,2.1c-0.1,0.2-0.1,0.4-0.2,0.6c0.2,0,0.3,0,0.3,0c0.4-0.8,0.8-1.5,1.1-2.3c1.6-3,3.2-6.1,4.7-9.1
			c0.7-1.3,1.2-2.6,1.9-3.9c0.1-0.3,0.2-0.6,0.3-0.8c0-0.1-0.1-0.3-0.2-0.4c-0.1-0.1-0.4,0-0.5,0.1c-0.2,0.3-0.4,0.6-0.5,0.9
			c-0.7,1.6-1.5,3.1-2.2,4.7C182,377.5,180.7,380.3,179.4,383z M190.6,394.8c0.1,0,0.1,0,0.2,0c0.1-0.5,0.3-1,0.3-1.5
			c0.3-3.6,0.7-7.2,0.7-10.8c0.1-6,0.1-12,0-18c-0.1-6.5-0.4-13.1-0.7-19.6c-0.3-8.3-0.6-16.7-0.4-25c0-0.3,0-0.6-0.1-0.9
			c-0.2-1-1.1-1.6-2.1-1.5c-0.9,0.1-1.6,0.8-1.7,1.8c-0.1,0.5,0,1.1,0,1.6c0.1,5.8,0.2,11.6,0.4,17.4c0.2,6.1,0.6,12.2,1,18.3
			c0.4,6.8,0.8,13.5,1.2,20.3c0.2,4,0.4,8,0.7,12C190.3,390.9,190.4,392.9,190.6,394.8z"/>
		<path class="st2" d="M180.2,313.2c-2.6,3.1-5.2,6.1-7.7,9.1c-0.1,0.1-0.2,0-0.4,0.1c0-1.3,0.4-2.5,0.6-3.7
			c0.1-0.6,0.3-1.3,0.4-1.9c0.1-0.6-0.1-1.2-0.5-1.7c-1-1.1-2.7-0.7-3.2,0.6c-0.2,0.6-0.3,1.2-0.4,1.8c-0.5,3.3-1.1,6.6-1.6,9.9
			c-0.1,0.9-0.3,1.7-0.8,2.6c-0.4,0.8-0.7,1.8-0.6,2.8c0.3,3.6-0.4,7.1-0.8,10.6c-0.5,4.3-1.1,8.7-1.6,13
			c-0.6,5.1-1.2,10.1-1.8,15.2c-0.7,5.9-1.4,11.8-2.1,17.7c-0.1,0.5-0.1,1.1,0.1,1.7c0.2-0.5,0.4-0.9,0.5-1.4
			c1.9-6.1,3.2-12.4,4.3-18.7c0.5-3.1,1.1-6.3,1.7-9.7c0.3,1.6,0.2,3,0.3,4.3c0,0.2,0,0.4-0.1,0.5c-0.7,0.6-0.5,1.3-0.2,2
			c0.5,1.4,0.4,2.8,0.4,4.3c0,2.9,0.1,5.9,0.1,8.8c0.1,3.7,0.1,7.4,0.1,11.2c0,0.4,0,0.8,0,1.2c-1.1,1.2-6.3,5.5-7.7,6.4
			c-0.2-0.3-0.4-0.5-0.6-0.8c-5.2-8.3-10.4-16.5-15.7-24.8c-0.7-1.1-0.9-2.1-0.7-3.4c1.6-9.9,3.2-19.9,4.7-29.8
			c0.8-5.3,1.8-10.5,2.6-15.8c0.1-0.8,0.4-1.5,1.1-2c1.4-1.2,2.7-2.4,4-3.6c4.2-3.5,8.4-7,12.6-10.5c0.3-0.2,0.5-0.5,0.8-0.7
			c0.7-0.5,1-1.1,1.1-1.9c0.4-3,0.8-6.1,1.2-9.1c0.8-5.5,1.5-10.9,2.3-16.4c0.1-0.4,0.2-0.8,0.3-1.3c1,0.1,1.7,0.5,2.6,0.7
			c0.8,0.2,1.6,0.5,2.4,0.7c0.9,0.2,1.7,0.4,2.7,0.6c-0.1,0.9-0.1,1.7-0.3,2.5c-1.1,7.5-2.3,14.9-3.4,22.4c-0.1,0.9-0.1,1.7,0.5,2.5
			C178.4,310.3,179.2,311.7,180.2,313.2z M151.1,377.5c0.2-0.3,0.5-0.6,0.7-0.9c0.3-0.4,0.6-0.7,0.8-1.1c2.4-3.1,4.8-6.3,7.2-9.4
			c0.1-0.2,0.3-0.4,0.4-0.6c0-0.2,0-0.5-0.2-0.6c-0.1-0.1-0.5,0-0.6,0.1c-0.2,0.2-0.4,0.5-0.5,0.7c-2.2,3-4.4,6-6.5,9
			c-0.3,0.5-0.6,1-0.9,1.5c-0.2,0.3-0.4,0.6-0.6,0.9c-0.4,0.6-0.8,1.2-1.2,1.7c-0.1,0.2-0.2,0.5-0.4,0.7
			C150.1,379,150.7,378.3,151.1,377.5z M149.6,361c-0.5,0.6-1.1,1.2-1.6,1.8c0,0.1,0,0.2,0,0.4c0.8-0.5,1.4-1.1,1.9-1.8
			c3.1-2.9,6.3-5.9,9.4-8.8c0.6-0.5,1.1-1.1,1.6-1.7c0.3-0.3,0.1-0.7-0.4-0.8c-0.2,0.2-0.5,0.4-0.8,0.7c-1.4,1.4-2.8,2.8-4.2,4.2
			C153.5,357,151.6,359,149.6,361z M151.4,350.6c-1,1-1,1-1.2,2c0.5-0.6,0.9-1,1.3-1.4c2.3-2.2,4.7-4.3,7-6.5
			c1.5-1.4,2.9-2.8,4.3-4.3c0.3-0.2,0.5-0.5,0.3-0.9c-0.2-0.3-0.5-0.2-1,0.3c-2.5,2.4-4.9,4.9-7.4,7.3
			C153.6,348.2,152.5,349.4,151.4,350.6z M147.3,372.8c-0.6,0.4-1,0.9-1.2,1.6c0.6-0.4,1.2-0.7,1.6-1.4c2.2-2,4.4-4,6.6-6.1
			c1.6-1.5,3.2-3.1,4.7-4.7c0.3-0.3,0.4-0.8,0.1-0.9c-0.3-0.2-0.6,0-0.8,0.2c-0.1,0.1-0.2,0.3-0.4,0.4c-2.1,2.1-4.2,4.1-6.2,6.2
			C150.2,369.6,148.8,371.2,147.3,372.8z M153.2,345.2c2.4-2.2,4.8-4.4,7.1-6.6c1.4-1.3,2.7-2.7,4.1-4c0.2-0.2,0.3-0.5,0.6-0.8
			c-0.4-0.1-0.6-0.3-0.7-0.2c-0.3,0.1-0.5,0.3-0.7,0.5c-2.2,2.2-4.4,4.4-6.6,6.6c-1.3,1.4-2.6,2.8-4,4.2c-1,1-1,1-1.1,1.9
			C152.3,346.1,152.7,345.7,153.2,345.2z M150,365.9c3.2-3,6.5-6.1,9.7-9.2c0.3-0.3,0.7-0.7,0.9-1.1c0.1-0.1,0-0.4-0.1-0.5
			c-0.1-0.1-0.4-0.1-0.5-0.1c-0.3,0.1-0.5,0.4-0.7,0.6c-1.7,1.7-3.5,3.5-5.2,5.2c-1.5,1.5-2.9,3-4.4,4.5c-0.7,0.7-1.4,1.5-2,2.2
			c-0.1,0.1-0.1,0.3-0.2,0.4c0.2,0,0.3,0,0.4,0C148.5,367.3,149.2,366.6,150,365.9z M150.1,356.9c0.5-0.4,1-0.9,1.4-1.3
			c3.1-2.9,6.1-5.8,9.1-8.6c0.4-0.4,0.9-0.8,1.2-1.3c0.3-0.4,0-0.7-0.4-0.8c-0.3,0.3-0.6,0.5-0.9,0.8c-1.2,1.2-2.5,2.4-3.7,3.7
			c-2.3,2.3-4.6,4.7-6.9,7.1c-0.5,0.3-0.9,0.8-1.3,1.7C149.4,357.6,149.8,357.4,150.1,356.9z M153.5,338.7c-0.6,0.3-0.9,0.9-1.3,1.7
			c0.7-0.3,1.1-0.7,1.3-1.1c3.6-3.4,7.2-6.8,10.8-10.2c0.3-0.3,0.7-0.7,1-1c0.3-0.4,0.1-0.7-0.4-0.8c-0.2,0.2-0.5,0.3-0.7,0.5
			c-1.9,1.8-3.7,3.7-5.6,5.6C157,335.1,155.3,336.9,153.5,338.7z M167,321.2c-0.3,0.2-0.5,0.2-0.6,0.4c-3.5,3.4-6.9,6.8-10.3,10.2
			c-0.7,0.7-1.2,1.6-1.9,2.6c1.5-1,7.8-6.7,12-11c0.5-0.5,1-0.8,1.3-1.7C167.3,321.5,167.2,321.3,167,321.2z"/>
		<path class="st2" d="M367.4,80.2c-5.9-3.1-11.7-6.6-17.2-10.4c-10.1-7.1-20.3-14.1-30.4-21.2c-3.5-2.4-7.2-4.6-11.2-6.1
			c-1.9-0.7-3.7-1.3-5.7-1.5c-1.3-0.1-2.5,0-3.7,0.5c-2.1,1-2.7,2.6-2,4.7c0.5,1.4,1.4,2.5,2.3,3.6c0.5,0.6,1,1.2,1.5,1.7
			c-0.7,1.3-4.8,6.8-6.8,9.1c-0.2-0.3-0.4-0.5-0.6-0.7c-1.2-1.6-2.4-3.2-3.5-4.8c-1.5-2.1-3-4.2-4.4-6.4c-0.7-1.2-1.3-2.4-1.9-3.7
			c-0.3-0.8-0.6-1.6-0.8-2.4c-1-4,0.4-7.1,4.1-9c1.3-0.7,2.8-1.1,4.2-1.5c2.4-0.7,5-0.9,7.5-1c3.8-0.2,7.6-0.1,11.3,0.3
			c1.1,0.1,2.2,0.5,3.3,0.9c1.7,0.7,3.3,1.7,4.7,2.9c1.8,1.5,3.7,3.1,5.4,4.8c2.2,2.1,4.3,4.3,6.4,6.6c7.1,7.6,14.9,14.7,22.9,21.3
			c4.9,4.1,9.9,8,14.9,11.9C367.7,80,367.6,80.1,367.4,80.2z"/>
		<path class="st2" d="M192.3,415.3c-0.4-0.4-0.7-0.6-0.9-0.9c-6.7-7.2-13.3-14.5-20-21.7c-0.2-0.3-0.5-0.6-0.7-0.8
			c-0.5-0.5-0.7-1.1-0.7-1.8c0-1.6,0-3.1,0-4.7c0-0.1,0.1-0.2,0.2-0.4c2,1.9,3.7,4,5.6,6c1.9,2,3.7,4.1,5.6,6.1c1.8,2,3.7,4,5.5,5.9
			c1.9,2,3.7,4,5.7,6.1c0.7-0.6,1.1-1.4,1.6-2c0.5-0.7,1-1.3,1.5-2c0.5-0.7,1-1.3,1.6-2c0.5-0.7,1.1-1.3,1.6-1.9
			c0.5-0.6,1.1-1.3,1.6-1.9c0.6-0.7,1.2-1.4,1.7-2.1c0.5-0.6,1.1-1.3,1.6-1.9c0.5-0.6,1.1-1.3,1.6-1.9c0.5-0.6,1.1-1.3,1.6-1.9
			c0.5-0.6,1.1-1.3,1.6-1.9c0.5-0.6,1.1-1.3,1.6-2c0.5-0.6,1-1.3,1.7-2c0.2,1.8,0.3,3.4,0.3,5c0,0.4-0.2,0.8-0.5,1.1
			c-0.5,0.7-1.1,1.5-1.6,2.1c-5.7,6.9-11.4,13.8-17.1,20.7C192.9,414.7,192.6,414.9,192.3,415.3z"/>
		<path class="st2" d="M141.1,377.3c6.1,9.5,11.9,18.7,17.8,28c0.4-0.2,0.7-0.4,0.9-0.6c1.8-1.6,3.6-3.3,5.5-4.9
			c0.4-0.4,0.8-0.8,1.4-1c0.1,0.1,0.2,0.1,0.2,0.2c0,0,0,0.1,0,0.2c0,1.4,0,2.9,0,4.3c-0.9,1-7.8,6.8-9.4,7.8
			c-0.2-0.3-0.4-0.5-0.6-0.8c-5.4-8.5-10.7-16.9-16.1-25.4c-0.6-1-1-2-0.6-3.2c0.3-1.2,0.4-2.4,0.6-3.5
			C140.9,378.1,141,377.9,141.1,377.3z"/>
		<path class="st2" d="M224.9,405.8c4.5-9.1,10-17.5,14.7-26.3c0.5,0,0.5,0.2,0.5,0.4c0.2,1.1,0.4,2.1,0.7,3.2c0.3,1,0.1,2-0.4,2.9
			c-1.5,2.6-2.9,5.3-4.4,7.9c-3.1,5.5-6.3,11-9.5,16.5c-0.3,0.5-0.6,1-1,1.6c-0.3-0.2-0.6-0.3-0.8-0.5c-2.2-1.7-4.4-3.4-6.6-5
			c-0.6-0.4-0.9-0.9-0.9-1.6c0-1.4-0.1-2.9-0.1-4.5c0.4,0.2,0.7,0.3,0.9,0.5c1.9,1.4,3.7,2.8,5.6,4.2
			C224,405.3,224.4,405.5,224.9,405.8z"/>
		<path class="st2" d="M186.9,180c0.9,0.8,1.6,1.7,2,2.8c0.6,1.4,1.1,2.8,1.4,4.2c0.5,2.4,0.8,4.8,1.1,7.3c0.1,0.4,0,0.8,0,1.5
			c-0.4-0.8-0.6-1.3-0.7-1.8c-0.5-2.1-1-4.2-1.6-6.3c-0.6-2.3-1.3-4.6-2.5-6.7C186.5,180.7,186.4,180.4,186.9,180z"/>
		<path class="st2" d="M204.2,437.5c0.7-1.3,5.4-7,6.8-8.3c3.2,2.5,6.5,5,9.7,7.4c0,0.5-0.3,0.4-0.5,0.4c-1.9,0-3.7,0.1-5.6,0.1
			c-2.8,0.1-5.5,0.2-8.3,0.3C205.7,437.5,205,437.5,204.2,437.5z"/>
	</g>
	<g id="LETRAS">
		<path class="st2" d="M425,144.3c-0.3-0.7-0.6-1.3-0.9-2.1c5.3-2.5,10.5-4.9,15.7-7.4c0.7,0.4,0.8,1.3,1.3,2
			c-0.4,0.2-0.7,0.5-1,0.7c-3.2,1.5-6.4,3-9.6,4.5c-0.4,0.2-0.8,0.4-1.4,0.8c2.8,0.9,5.6,1.2,8.2,2.1c-0.1,0.4-0.1,0.7-0.3,1
			c-0.9,1.8-1.8,3.7-2.7,5.5c-0.2,0.4-0.3,0.7-0.5,1c0.1,0.1,0.2,0.2,0.2,0.2c0.1,0,0.1,0,0.2,0c0.1,0,0.2-0.1,0.3-0.1
			c3.6-1.7,7.3-3.4,10.9-5.1c0.1,0,0.1,0,0.2,0c0.1,0,0.1,0,0.3,0c0.5,0.6,0.7,1.3,1,2c-1.2,0.9-11.4,5.8-15.6,7.6
			c-0.6-0.4-0.8-1.1-1-1.8c-0.1-0.3,0.1-0.8,0.3-1.2c0.9-2,1.9-4,2.9-6c0.2-0.4,0.4-0.9,0.6-1.4C431,145.7,428,145.2,425,144.3z"/>
		<path class="st2" d="M461.9,272.4c-0.1,0.6-0.2,1.3-0.3,2c-2,0-3.8-0.4-5.7-0.6c-2-0.2-3.9-0.5-5.9-0.8c-1.9-0.3-3.8-0.5-5.7-0.8
			c0-0.7,0.1-1.3,0.1-1.9c0.5-0.4,1.1-0.8,1.6-1.1c4-2.6,8-5.3,12-7.9c0.4-0.2,0.9-0.4,1-1.1c-4.3-0.6-8.5-1.1-12.8-1.7
			c-0.3-0.8,0-1.5,0.1-2.3c2,0,3.9,0.4,5.8,0.6c2,0.2,3.9,0.5,5.9,0.8c1.9,0.3,3.8,0.5,5.6,0.8c0.3,0.7,0.1,1.3-0.1,1.8
			c-0.1,0.3-0.3,0.5-0.5,0.7c-0.3,0.3-0.7,0.5-1,0.7c-3.8,2.5-7.6,5-11.4,7.5c-0.5,0.3-1,0.7-1.6,1.1c0.6,0.5,1.2,0.4,1.8,0.5
			c0.6,0.1,1.3,0.2,2,0.2c0.6,0.1,1.2,0.2,1.8,0.3c0.7,0.1,1.3,0.2,2,0.3c0.6,0.1,1.2,0.1,1.8,0.2c0.7,0.1,1.3,0.2,2,0.3
			C460.7,272,461.3,272,461.9,272.4z"/>
		<path class="st2" d="M410.8,351.8c0-5.1,4.4-9.8,9.5-9.9c4.2-0.1,8,3.1,8.9,7c1.1,4.7-2.4,11-8,11.8c-1.2,0.2-2.4,0.1-3.6-0.2
			C413.7,359.5,410.9,355.9,410.8,351.8z M420.4,344.5c-3.7,0-7,3.2-7,7c0,3.5,3.1,6.7,6.6,6.7c3.6,0.1,7-3.3,7-7
			C427,347.6,424,344.5,420.4,344.5z"/>
		<path class="st2" d="M459.4,284.4c0,1.5-0.3,2.9-0.9,4.3c-1.6,4-5.8,6.3-9.9,5.4c-4.5-1-7.4-4.4-7.4-8.9c0-1.6,0.4-3.2,1-4.7
			c1.5-3.2,5.4-6.2,10.3-5C456.6,276.5,459.4,280,459.4,284.4z M450.5,277.9c-1.3-0.1-2.6,0.3-3.7,1.1c-1.8,1.2-2.7,2.9-3.1,5.1
			c-0.6,4.1,2.6,8.1,7.5,7.6c3.6-0.4,5.9-3.4,5.8-7.3C457,280.7,454.2,278,450.5,277.9z"/>
		<path class="st2" d="M444.2,202.3c5.9-0.8,11.5-1.5,17.3-2.2c0.1,0.8,0.3,1.4,0.4,2.1c-2,2.2-3.9,4.4-5.9,6.6
			c-1.9,2.1-3.8,4.2-5.9,6.6c2.5,0,4.6-0.5,6.7-0.7c2.1-0.2,4.2-0.6,6.5-0.8c0.1,0.7,0.2,1.4,0.3,2.1c-0.4,0.1-0.8,0.3-1.2,0.4
			c-4.2,0.5-8.3,1-12.5,1.6c-1,0.1-1.9,0.2-2.9,0.4c-0.3,0-0.6,0-1,0c-0.1-0.5-0.1-0.9-0.2-1.3c-0.1-0.5,0.1-0.8,0.4-1.1
			c0.4-0.5,0.9-1,1.3-1.5c2.9-3.3,5.9-6.6,8.8-9.9c0.3-0.4,0.6-0.7,0.9-1c-0.2-0.5-0.5-0.3-0.8-0.3c-2.6,0.3-5.1,0.6-7.7,1
			c-1.5,0.2-3,0.4-4.4,0.6C444.1,203.9,444.3,203.2,444.2,202.3z"/>
		<path class="st2" d="M438.5,178.8c0-4.8,2.5-8.2,6.4-9.4c4.6-1.4,8.4,0.9,10.2,3.8c1.6,2.7,2.3,5.5,1.3,8.6
			c-1.2,3.7-3.9,5.7-7.7,6.1c-3.7,0.4-6.5-1.1-8.5-4.2C439,181.9,438.5,180,438.5,178.8z M441,178.2c0,1.2,0.2,2,0.7,3.1
			c0.9,2.1,3.3,4.2,6.5,3.9c2.9-0.2,5.1-2,5.9-4.7c0.6-1.8,0.3-3.6-0.5-5.2c-1.3-2.8-4.4-4.3-7.3-3.6C443,172.4,440.9,175,441,178.2
			z"/>
		<path class="st2" d="M444.5,164.2c2.3-0.8,4.6-1.7,6.9-2.5c0.6,0.7,0.7,1.4,0.9,2.1c-1.3,0.8-10.1,4.2-16.2,6.3
			c-0.2-0.3-0.4-0.6-0.5-0.9c-0.4-1.1-0.9-2.2-1.3-3.4c-0.3-0.9-0.5-1.8-0.5-2.8c0.2-4.1,4.9-5.4,7.1-3.8c0.3,0.2,0.6,0.4,0.9,0.6
			c0.9-1.4,1.8-2.8,2.7-4.2c1-1.4,2-2.7,3.1-4.1c0.5,0.8,0.7,1.7,1,2.5c-0.6,1.2-1.5,2.3-2.3,3.4c-0.7,0.9-1.3,1.9-1.9,2.8
			C443.7,161.5,443.6,162.8,444.5,164.2z M442.3,164.9c-0.5-1.1-0.9-2-1.5-2.9c-0.6-0.9-1.8-1.2-2.9-0.8c-1.1,0.4-1.8,1.3-1.8,2.4
			c0.1,1.1,0.3,2.2,1.1,3.2C438.9,166.3,440.5,165.8,442.3,164.9z"/>
		<path class="st2" d="M360.2,408.4c3.3,0.6,6.1,2.6,9.1,3.7c0.1,0.5-0.2,0.6-0.5,0.7c-0.5,0.3-1,0.6-1.6,1
			c-1.4-0.4-2.6-1.1-3.9-1.7c-1.1-0.6-2.3-1-3.5-1.4c-1.4-0.3-2.5,0-3.4,1c1.3,2.1,2.5,4.1,3.8,6.1c-0.6,0.8-0.6,0.8-2.1,1.4
			c-3.1-4.8-6.1-9.7-9.2-14.7c0.3-0.3,0.5-0.5,0.8-0.7c1.1-0.7,2.1-1.4,3.2-2c1.1-0.7,2.3-1,3.6-0.9c3.1,0.1,4.9,3.7,4.2,5.8
			C360.6,407.3,360.5,407.8,360.2,408.4z M355.1,409.6c1.2-0.5,2.1-1.1,2.6-1.7c0.8-0.9,0.9-2.2,0.2-3.3c-0.6-0.9-1.9-1.5-3-1
			c-0.9,0.4-1.8,0.8-2.6,1.6C353.3,406.7,354.2,408.1,355.1,409.6z"/>
		<path class="st2" d="M424.9,327.6c0.3-0.6,0.5-1.1,0.8-1.7c0.1-0.2,0.2-0.3,0.3-0.5c0.5,0.2,1,0.4,1.4,0.6
			c2.5,1.2,4.9,2.4,7.4,3.6c0.8,0.4,1.5,0.7,2.3,0.9c1.2,0.4,2.3,0.1,3.2-0.7c1.6-1.2,2.4-2.8,2.5-4.8c0.1-1.5-0.5-2.7-1.8-3.5
			c-0.7-0.4-1.3-0.8-2-1.1c-2.4-1.2-4.8-2.4-7.2-3.6c-0.4-0.2-0.7-0.4-1.1-0.6c0-0.9,0.6-1.5,0.9-2.3c0.4,0.1,0.7,0.2,1,0.4
			c2.7,1.3,5.4,2.6,8.1,4c0.4,0.2,0.9,0.4,1.3,0.7c2.9,1.7,3.8,4,3.1,7.3c-0.4,1.8-1.3,3.5-2.6,4.8c-1.9,1.9-4.2,2.4-6.8,1.5
			c-0.5-0.2-1-0.4-1.5-0.6c-2.8-1.4-5.6-2.7-8.4-4.1C425.4,328,425.2,327.8,424.9,327.6z"/>
		<path class="st2" d="M378.8,383.1c0.5-0.4,0.9-0.8,1.2-1.1c1.5,0.4,16.1,7.4,17.4,8.3c-0.5,0.6-1.1,1.1-1.8,1.5
			c-1.7-0.8-3.3-1.5-5.1-2.4c-1.9,1.6-3.7,3.2-5.6,4.8c0.6,1.8,1.1,3.6,1.7,5.5c-0.3,0.3-0.7,0.5-1,0.8c-0.3,0.2-0.6,0.4-0.9,0.6
			c-0.1-0.2-0.3-0.3-0.3-0.5C382.5,394.9,380.7,389,378.8,383.1z M382.1,385.6c0.7,3.1,1.5,5.2,2.2,6.2c1.3-1.1,2.6-2,3.8-3.4
			C386.1,387.5,384.3,386.6,382.1,385.6z"/>
		<path class="st2" d="M314,439.9c-0.2-1.7,0.3-16.8,0.6-19.1c0.5-0.2,1-0.4,1.4-0.6c4.6,4.6,9.1,9.1,13.6,13.6
			c-0.5,0.5-1.3,0.6-2.1,0.9c-1.5-1.1-2.6-2.6-4.1-3.9c-2.3,0.7-4.6,1.7-6.9,2.6c-0.1,1.9-0.2,3.8-0.3,5.6
			C315.5,439.5,314.8,439.7,314,439.9z M317,424.7c-0.4,1.5-0.5,4.6-0.2,6.2c1.6-0.4,3.1-1.1,4.6-1.7
			C320.4,427.8,318.2,425.6,317,424.7z"/>
		<path class="st2" d="M432.1,131.4c1-0.1,1.9-0.2,2.8-0.3c0.9-0.1,1.8-0.2,2.7-0.4c0.7,0.6,0.9,1.3,1.3,1.9
			c-0.1,0.1-0.1,0.2-0.1,0.2c0,0-0.1,0.1-0.1,0.1c-0.5,0.1-0.9,0.2-1.4,0.3c-5.7,0.7-11.4,1.4-17.2,2.1c-0.3-0.5-0.6-0.9-0.9-1.4
			c0.7-1.3,10.1-14.4,11.3-15.7c0.4,0.7,0.8,1.3,1.2,2.1c-1.1,1.5-2.1,3-3.3,4.7C429.6,127.1,430.9,129.2,432.1,131.4z M426.8,127.3
			c-0.6,0.9-1.3,1.7-1.9,2.6c-0.6,0.9-1.4,1.6-1.7,2.7c2.1-0.1,4.9-0.5,6.2-0.9C428.9,130.1,427.8,128.4,426.8,127.3z"/>
		<path class="st2" d="M343.3,421.9c0.1,1.9,0.3,3.6,0.4,5.5c-0.7,0.5-1.3,1-2.3,1.1c-0.6-6.3-1.1-12.6-1.6-18.9
			c0.5-0.3,0.9-0.6,1.4-0.8c0.2,0.1,0.4,0.1,0.5,0.2c3.1,2.4,6.1,4.8,9.2,7.2c1.5,1.2,3,2.4,4.5,3.5c0.3,0.3,0.6,0.5,1,0.8
			c-0.6,0.7-1.3,0.9-2.1,1.3c-1.5-1.1-2.9-2.2-4.4-3.3C348.7,418.8,345.5,420.5,343.3,421.9z M342.5,412.9c-0.1,0.7,0.1,1.4,0.2,2.1
			c0.1,0.7,0.1,1.4,0.2,2.1c0.1,0.7,0,1.4,0.5,2.1c1.5-0.8,2.9-1.6,4.3-2.3C346.6,415.7,343.8,413.5,342.5,412.9z"/>
		<path class="st2" d="M392.9,74.1c0.7,0.7,1.2,1.2,1.8,1.7c-0.6,1.7-1.2,3.5-1.8,5.2c0.8,1.1,3.5,3.8,5.3,5.3
			c1.8-0.4,3.3-1.5,5.2-2c0.7,0.4,1.2,1,1.7,1.6c-1.2,0.8-13.1,5.9-17.4,7.4c-0.1,0-0.2-0.1-0.3-0.1c-0.3-0.3-0.6-0.5-1-0.8
			c0.1-0.4,0.1-0.7,0.2-0.9c1.2-3.4,2.5-6.7,3.7-10.1c0.8-2.1,1.5-4.2,2.3-6.2C392.5,74.8,392.7,74.6,392.9,74.1z M389.7,89.6
			c0.1,0.1,0.2,0.2,0.3,0.2c1.9-0.7,3.7-1.5,5.6-2.4c-0.5-0.8-1.2-1.3-1.8-1.9c-0.6-0.6-1.1-1.3-2-1.7
			C391.1,85.8,390.4,87.7,389.7,89.6z"/>
		<path class="st2" d="M464.5,244.6c-0.2,3.2-0.3,6.4-0.5,9.8c-0.3,0.1-0.6,0.2-0.9,0.1c-5.3-0.3-10.5-0.6-15.8-0.9
			c-0.2,0-0.5-0.1-0.7-0.1c-0.2-1.4,0-6.9,0.4-9.7c0.7-0.3,1.3-0.1,2.1,0.1c-0.1,2.4-0.2,4.7-0.3,7.1c0.8,0.5,1.8,0.4,2.6,0.4
			c0.8,0,1.7,0.2,2.6,0c0.5-2.3,0.2-4.7,0.5-6.9c0.8-0.2,1.4-0.1,2.2,0.1c0,2.4-0.3,4.7-0.2,7c1.6,0.4,3.7,0.4,5.3,0.2
			c0.1-1.2,0.1-2.5,0.2-3.7c0.1-1.2,0.2-2.4,0.3-3.6C463.1,244.3,463.8,244.1,464.5,244.6z"/>
		<path class="st2" d="M307.2,425c0.2,0.9,0.7,1.6,0.6,2.4c-0.7,0.2-1.3,0-2-0.1c-1.9-0.2-3.7,0.1-5.4,0.9c-2.7,1.3-4.5,4.6-3.4,8
			c1.1,3.3,4.2,5.1,7.6,4.4c1.9-0.4,3.6-1.3,5.1-2.6c0.4-0.4,0.8-0.7,1.3-1.2c0.3,0.9,0.5,1.7,0.8,2.5c-2.1,2.1-4.5,3.2-7.3,3.7
			c-2.9,0.5-5.4-0.3-7.5-2.2c-4.1-3.8-4.1-10.8,1.4-14.4c1.3-0.9,2.8-1.3,4.4-1.5C304.2,424.8,305.6,424.9,307.2,425z"/>
		<path class="st2" d="M375.2,391.2c-1.2,0.4-2.3,0.6-3.3,1c-1.3,0.5-2.5,1.2-3.5,2.2c-2.8,2.8-2.9,7.5,1.1,10.3
			c2,1.4,4.3,1.4,6.5,0.3c1.9-0.9,3.3-2.4,4.3-4.2c0.3-0.5,0.6-1,0.9-1.7c0.7,0.6,1.1,1.3,1.5,2c-1.5,3.5-5.4,6.6-8.8,7
			c-4,0.5-7.3-1.7-9-4.7c-1.7-3-1.3-7.2,1-10c1-1.2,2.1-2.1,3.5-2.8c1.4-0.7,2.8-1.3,4.4-1.5C374.4,389.8,374.8,390.4,375.2,391.2z"
			/>
		<path class="st2" d="M438.7,298.8c0.9,0.3,1.6,0.4,2.3,1c-0.5,0.5-1,1-1.4,1.4c-1.4,1.5-2.4,3.3-2.7,5.4c-0.4,3.1,1.3,6,4.3,7.1
			c2.9,1.1,6,0.1,7.7-2.5c1-1.5,1.5-3.2,1.5-5.1c0-0.9,0-1.9,0-2.9c0.9,0,1.6,0.4,2.4,0.9c0.3,3.5-0.5,6.8-2.8,9.6
			c-3.9,4.7-11.4,3.8-14.4-1.3c-1.5-2.6-1.7-5.3-0.7-8.1C435.8,302.1,437,300.4,438.7,298.8z"/>
		<path class="st2" d="M403.4,89.9c0.8-0.7,1.4-1.2,2-1.7c0.4,0.2,0.8,0.3,1.2,0.5c2.2,1.1,4,2.8,5.4,4.9c1.9,3.1,1.9,6.3,0,9.3
			c-1.9,3-4.7,4.5-8.4,4.2c-2.8-0.2-5-1.5-6.7-3.7c-1.2-1.5-2-3.2-2.6-5.1c0.4-0.8,1.1-1.2,1.7-1.7c0.5,0.2,0.4,0.6,0.5,0.9
			c0.6,1.9,1.4,3.7,2.9,5.1c1.3,1.2,2.7,1.9,4.5,2c2.7,0.1,4.6-1.1,6-3.3c1.3-2.1,1.2-4.3,0-6.5c-1-1.8-2.6-3.1-4.5-4
			C404.8,90.5,404.2,90.3,403.4,89.9z"/>
		<path class="st2" d="M391,74.3c-0.6,0.8-1.2,1.4-1.8,2.1c-0.6-0.2-0.4-0.6-0.4-0.9c-0.2-1.2-0.6-2.3-1.4-3.2
			c-0.2-0.2-0.4-0.4-0.7-0.6c-0.8-0.6-1.7-0.9-2.7-0.4c-1,0.5-1.4,1.5-1.3,2.6c0.1,0.8,0.3,1.5,0.5,2.3c0.3,1.2,0.8,2.4,1,3.6
			c0.5,2.5-1.1,4.7-3.5,5.2c-1.2,0.3-2.4-0.1-3.4-0.7c-1.6-0.9-2.5-2.2-3.1-4.2c0.4-0.7,0.9-1.3,1.5-1.8c0.5,0.2,0.4,0.5,0.5,0.8
			c0.3,0.6,0.4,1.3,0.8,1.8c0.4,0.6,1,1.1,1.5,1.5c0.8,0.5,1.7,0.7,2.5,0.1c0.8-0.5,1-1.4,0.8-2.2c-0.2-0.9-0.5-1.7-0.7-2.6
			c-0.3-0.9-0.6-1.8-0.8-2.7c-0.4-1.6,0-3.1,1.1-4.4c1.4-1.7,3.6-2.2,5.7-1.2c1.5,0.7,2.6,1.9,3.3,3.4
			C390.6,73.1,390.8,73.6,391,74.3z"/>
		<path class="st2" d="M407.3,355.5c0.6,0.5,1.3,1,2,1.7c-0.4,0.2-0.8,0.3-1.1,0.4c-0.5,0.2-1.1,0.4-1.6,0.7c-0.7,0.4-1.2,1-1.6,1.7
			c-0.4,0.8-0.6,1.6-0.1,2.4c0.5,0.8,1.3,1,2.2,0.9c0.6-0.1,1.2-0.3,1.7-0.4c0.9-0.3,1.7-0.6,2.5-0.9c0.9-0.3,1.7-0.4,2.7-0.4
			c3.7,0.2,5.8,3.9,3.9,7.1c-1.1,1.8-2.7,3-4.8,3.5c-0.8-0.4-1.5-1.1-2.3-1.8c0.8-0.2,1.4-0.3,2-0.4c1.1-0.3,2-0.8,2.7-1.7
			c0.3-0.4,0.6-0.9,0.7-1.4c0.3-1.3-0.5-2.5-1.8-2.6c-0.7-0.1-1.4,0-2.1,0.2c-0.8,0.2-1.6,0.5-2.4,0.8c-0.7,0.2-1.5,0.4-2.3,0.6
			c-1.8,0.4-3.3-0.2-4.4-1.7c-1.2-1.5-1.2-3.1-0.4-4.7C403.7,357.4,405.2,356.1,407.3,355.5z"/>
		<path class="st2" d="M447.9,233.4c0.8,0,1.6,0,2.5,0c-0.2,0.4-0.3,0.7-0.5,0.9c-0.7,1-1.1,2.1-1,3.4c0.1,0.6,0.3,1.2,0.6,1.7
			c0.5,0.9,1.5,1.1,2.4,0.6c0.5-0.3,1-0.8,1.4-1.3c0.6-0.8,1-1.6,1.5-2.4c0.4-0.7,0.9-1.3,1.4-1.9c1.3-1.4,2.9-1.9,4.7-1.6
			c1.7,0.3,2.9,1.4,3.5,3c0.4,1,0.4,2.1,0.2,3.2c-0.2,1.2-0.6,2.4-1.5,3.4c-0.9,0-1.8,0-2.9,0c0.3-0.4,0.6-0.7,0.8-1
			c0.8-0.9,1.3-1.9,1.3-3.1c0-0.6,0-1.3-0.3-1.9c-0.5-1.2-1.8-1.7-3-1.1c-0.7,0.3-1.2,0.8-1.6,1.4c-0.5,0.8-0.9,1.5-1.4,2.3
			c-0.5,0.7-0.9,1.4-1.5,2c-1.2,1.4-2.8,1.8-4.6,1.4c-1.7-0.4-2.8-1.6-3.2-3.3C446.4,237.1,446.6,235.2,447.9,233.4z"/>
		<path class="st2" d="M460.8,196.3c-5.8,1.2-11.5,2.3-17.2,3.5c-0.6-1.6-0.7-3.1-1.1-4.6c-0.3-1.4-0.6-2.9-0.9-4.5
			c0.7-0.2,1.3-0.3,2-0.5c0.8,2.2,0.8,4.4,1.5,6.6c1.6,0,3.1-0.5,4.7-0.8c-0.2-2.3-0.9-4.4-1.2-6.6c0.4-0.1,0.7-0.2,1-0.3
			c0.3-0.1,0.6-0.1,1-0.2c0.8,2.1,0.8,4.4,1.5,6.6c2.6-0.3,5.2-1,7.8-1.4C460.7,194.6,460.5,195.4,460.8,196.3z"/>
		<path class="st2" d="M409.1,114.6c1.4,1.6,2.2,3.4,3.6,4.9c2.1-1.5,4.2-2.9,6.3-4.3c2.1-1.4,4.1-2.9,6.2-4.3c0.6,0.6,1,1.2,1.4,2
			c-4.2,2.9-8.3,5.8-12.5,8.7c1.1,1.7,2.2,3.2,3.3,4.9c-0.5,0.6-1.1,1-1.8,1.3c-2.7-4-5.5-7.9-8.2-11.8
			C407.8,115.3,408.4,115.1,409.1,114.6z"/>
		<path class="st2" d="M333,429.8c2.5-1,4.7-2.2,7.1-3.2c0.3,0.7,0.6,1.3,0.9,1.8c-1,0.8-6.8,3.5-9.4,4.4c-1-1.6-1.6-3.4-2.5-5.1
			c-0.9-1.8-1.6-3.6-2.5-5.4c-0.8-1.7-1.6-3.5-2.4-5.3c0.4-0.2,0.8-0.4,1.2-0.6c0.3-0.2,0.6-0.3,1.1-0.4c1.2,2.3,2.1,4.6,3.2,6.9
			C330.8,425.2,331.8,427.5,333,429.8z"/>
		<path class="st2" d="M433.6,342.6c1.4-2.3,2.7-4.5,4-6.6c0.8,0.2,1.4,0.6,2,1.1c-1.7,3-3.4,5.9-5.2,8.8c-1.7-0.7-14.1-8.1-15.1-9
			c0.4-0.6,0.7-1.2,1.1-1.9c1.6,0.7,2.9,1.7,4.4,2.5c1.5,0.8,2.9,1.7,4.3,2.6C430.6,340.8,432,341.7,433.6,342.6z"/>
		<path class="st2" d="M446.4,223.8c0-0.7-0.1-1.5-0.1-2.1c0.1-0.1,0.2-0.2,0.2-0.2c0,0,0.1-0.1,0.1-0.1c5.5-0.4,11-0.8,16.5-1.2
			c0.2,0,0.3,0.1,0.6,0.1c0.1,0.7,0.2,1.4,0.3,2.2c-0.4,0.1-0.7,0.2-1.1,0.2c-2.3,0.2-4.5,0.4-6.8,0.5c-3,0.2-6,0.4-9,0.6
			C447,223.9,446.8,223.8,446.4,223.8z"/>
		<path class="st2" d="M406.3,114.7c-0.5-0.7-1-1.3-1.5-2c4.6-3.6,9.2-7.1,13.7-10.6c0.8,0.4,1.1,1.2,1.7,1.9
			C415.5,107.5,410.9,111.1,406.3,114.7z"/>
		<path class="st2" d="M455.6,299.1c-0.3,0.8-0.5,1.5-0.7,2.1c-1.7-0.3-15.4-4.6-16.7-5.2c0-0.2,0-0.3,0-0.5c0.2-0.5,0.3-1,0.5-1.6
			c0.3,0,0.5-0.1,0.7,0c5.1,1.6,10.2,3.2,15.3,4.8C455,298.8,455.2,298.9,455.6,299.1z"/>
		<path class="st2" d="M403,375.3c0.6,0.5,1,1,1.5,1.4c-0.7,1.2-3,3.6-4.4,4.6c-0.5-0.5-1-1-1.5-1.5
			C399.5,378.6,401.6,376.4,403,375.3z"/>
		<path class="st2" d="M378.6,376.8c0.1,1.9,0.2,3.3,0.2,4.7c-0.3,0.3-0.6,0.5-0.9,0.8c-0.7-1.2-0.9-2.5-1.3-3.8
			C377.2,378,377.7,377.5,378.6,376.8z"/>
		<path class="st2" d="M418.9,136.4c-1.3,0.1-2.6,0.2-3.8,0.3c-0.5-0.6-0.8-1.3-1.3-2c1.6-0.1,3,0.1,4.3,0.4
			C418.7,135.2,418.9,135.7,418.9,136.4z"/>
	</g>
	<g id="AMARILLO">
		<path class="st3" d="M187.5,278.1c-6.2,0.3-12-1.1-17.4-4.2c-9.4-5.3-15.3-13.2-17.4-23.7c-2.2-11.1,0.6-21,7.9-29.5
			c5.5-6.4,12.6-10.2,21-11.5c3.2-0.5,6.5-0.5,9.7-0.2c4.4,0.4,8.6,1.9,12.4,4.1c9.1,5.2,14.9,12.9,17.1,23.1
			c2.4,11.1-0.2,21.2-7.5,29.9c-5.2,6.3-11.9,10.1-19.9,11.7c-0.6,0.1-1.2,0.2-1.8,0.2C190.3,278.1,188.9,278.1,187.5,278.1z
			 M204.8,243.7c0-10.5-8.5-18.1-18-18.2c-9.6-0.1-18.2,7.6-18.3,18.1c-0.1,9.5,7.4,18.2,18.2,18.2
			C197.4,261.7,204.8,253,204.8,243.7z"/>
		<path class="st3" d="M224.7,237.7c-0.5-2.2-1.1-4.3-1.6-6.5c0.4-0.4,0.8-0.8,1.2-1.2c4-3.6,8-7.3,11.9-10.9
			c3.4-3.1,6.7-6.2,10.1-9.2c6.6-6.1,13.3-12.1,19.9-18.2c3.3-3,6.6-6.1,9.9-9.1c6.9-6.4,13.9-12.7,20.8-19.1c7.7-7,15.3-14,22.9-21
			c5.7-5.2,11.3-10.4,17-15.6c7.2-6.6,14.4-13.2,21.6-19.8c1.3-1.2,2.6-2.4,3.9-3.5c0.5-0.4,1-0.8,1.5-1.3c1.2,0.7,1.8,1.9,2.6,2.8
			c0.8,1,1.7,1.8,2.2,3c-0.3,0.3-0.5,0.6-0.7,0.8c-1.4,1.2-2.8,2.4-4.2,3.6c-1.1,0.9-2.2,1.9-3.2,2.9c-4.4,3.9-8.7,7.9-13.1,11.8
			c-5.3,4.7-10.5,9.5-15.8,14.2c-4.4,3.9-8.7,7.9-13.1,11.8c-5.3,4.8-10.6,9.5-15.9,14.3c-3.1,2.8-6.2,5.6-9.3,8.4
			c-5.6,5-11.1,10-16.7,15c-4.1,3.7-8.2,7.4-12.3,11.1c-5.6,5.1-11.2,10.1-16.8,15.2c-4.3,3.9-8.5,7.7-12.8,11.6c-3,2.7-6,5.4-9,8.1
			C225.5,237.1,225.2,237.4,224.7,237.7z"/>
		<path class="st3" d="M184.6,233.6c0,0.7,0.1,1.3,0.1,1.9c0,2.2,0.1,4.4,0,6.7c0,1.1,0.3,2,1,2.8c1.5,2,3,4,4.5,6.1
			c0.2,0.3,0.4,0.6,0.6,0.9c-2.2,2.6-7.9,2.9-11.4,0.8c-3.9-2.4-6.1-7.6-4.5-12.2C176.3,236.2,180.5,233.2,184.6,233.6z"/>
	</g>
</g>
</svg>
