<?xml version="1.0" encoding="utf-8"?>
<!-- Generator: Adobe Illustrator 21.1.0, SVG Export Plug-In . SVG Version: 6.00 Build 0)  -->
<svg version="1.1" id="Capa_1" xmlns="http://www.w3.org/2000/svg" xmlns:xlink="http://www.w3.org/1999/xlink" x="0px" y="0px"
	 viewBox="0 0 345.6 211.8" style="enable-background:new 0 0 345.6 211.8;" xml:space="preserve">
<style type="text/css">
	.st0{fill-rule:evenodd;clip-rule:evenodd;fill:#FFFFFF;}
	.st1{fill:#FFFFFF;}
</style>
<image style="display:none;overflow:visible;" width="2400" height="1800" xlink:href="logo honos montana.jpg"  transform="matrix(0.3375 0 0 0.3375 -231.9889 -146.75)">
</image>
<path class="st0" d="M294.1,54.2l-23.2-10.3l-37-39.6c0,0-25.4,2.5-29.2,3.4c-3.8,0.9-21.5,14.6-21.5,14.6s-3.5-0.7-6,0
	c-2.5,0.7-22.4,21.5-22.4,21.5l-18.9-22.4c0,0-5.9,2.7-6.9,2.6c-0.9-0.1-18.9,8.6-18.9,8.6L84.3,57.6L61,60.2l-49.9,46.4h159.9
	l-35.3-28.3l-7.7,2.6l-17.2-2.6l22.4-49l60.2,77.3h94.6l-31-34.3l-8.6,1.7l-24.9,2.6l-6.9-28.4L239,61l-26.7-35.3l12-3.4l15.5,12
	l7.7-8.6L266.6,49l24.9,9.5l38.7,48.1h4.3L294.1,54.2z M239.9,29.2l-12-11.2l-16.3,4.3l0.9-3.4l-9.5,3.4l-3.4,0.9l-0.9-0.9
	c0,0,10.1-8.8,10.3-9.5c0.3-0.7,24.1-3.4,24.1-3.4l12,13.8L239.9,29.2z"/>
<g>
	<path class="st1" d="M64.1,181.2c0,0.2-0.1,0.3-0.4,0.3h-8.4c-0.3,0-0.4-0.1-0.4-0.3v-30.5H20.9l-0.4,0.4v30.1
		c0,0.3-0.1,0.4-0.4,0.4h-8.4c-0.3,0-0.4-0.1-0.4-0.4v-64c0-0.3,0.1-0.4,0.4-0.4h8.5c0.2,0,0.3,0.1,0.3,0.4v0.4h0.1v23
		c0.1,0.5,0.3,0.8,0.8,0.9l33.4-0.3v-24.1c0.1-0.2,0.2-0.3,0.4-0.3h8.6c0.2,0,0.3,0.1,0.2,0.3V181.2z"/>
	<path class="st1" d="M137.2,164.8c-2.8,5.5-6.8,9.9-12.1,13.1c-5.3,3.3-10.9,4.9-17,5c-6.5,0.1-12.6-1.7-18.2-5.4
		c-5.6-3.7-9.7-8.5-12.3-14.5c-1.8-4.4-2.7-9-2.7-13.9c0-9,2.7-16.6,8.2-22.7c6.7-7.5,15.2-11.3,25.5-11.3c1.8,0,3.7,0.1,5.6,0.4
		c8.4,1.2,15.5,6.1,21.5,14.5c3.5,5,5.3,11.1,5.3,18.4C140.9,154.5,139.7,160,137.2,164.8z M129.1,139.3c-1-2.7-2.8-5.3-5.1-7.7
		c-2.4-2.4-4.9-4.1-7.7-5s-5.6-1.5-8.4-1.5c-6.8,0-12.3,2.3-16.5,6.9S85,142.3,85,149c0,3.2,0.5,6.3,1.6,9.2
		c1.2,3.5,3.4,6.6,6.6,9.3c3.2,2.7,6.5,4.4,10,5c1.5,0.3,3,0.4,4.4,0.4c5.9,0,11.2-2.2,16-6.5c4.8-4.3,7.2-10.2,7.2-17.5
		C130.9,145.6,130.3,142.4,129.1,139.3z"/>
	<path class="st1" d="M209.3,117.3v63.9c0,0.3-0.1,0.4-0.4,0.4h-9.3c-0.2,0-0.3-0.1-0.4-0.2L160.9,132v49.2c0,0.3-0.1,0.4-0.4,0.4
		h-8.4c-0.3,0-0.4-0.1-0.4-0.3v-64c0-0.3,0.1-0.4,0.4-0.4h8.5c0.1,0,0.4,0.1,0.8,0.4l38.7,49.7v-49.7c0-0.3,0.1-0.4,0.4-0.4h8.4
		C209.2,116.9,209.3,117,209.3,117.3z"/>
	<path class="st1" d="M282.4,164.8c-2.8,5.5-6.8,9.9-12.1,13.1c-5.3,3.3-10.9,4.9-17,5c-6.5,0.1-12.6-1.7-18.2-5.4
		c-5.6-3.7-9.7-8.5-12.3-14.5c-1.8-4.4-2.7-9-2.7-13.9c0-9,2.7-16.6,8.2-22.7c6.7-7.5,15.2-11.3,25.5-11.3c1.8,0,3.7,0.1,5.6,0.4
		c8.4,1.2,15.5,6.1,21.5,14.5c3.5,5,5.3,11.1,5.3,18.4C286.1,154.5,284.9,160,282.4,164.8z M274.4,139.3c-1-2.7-2.8-5.3-5.1-7.7
		c-2.4-2.4-4.9-4.1-7.7-5s-5.6-1.5-8.4-1.5c-6.8,0-12.3,2.3-16.5,6.9s-6.3,10.3-6.3,17c0,3.2,0.5,6.3,1.6,9.2
		c1.2,3.5,3.4,6.6,6.6,9.3c3.2,2.7,6.5,4.4,10,5c1.5,0.3,3,0.4,4.4,0.4c5.9,0,11.2-2.2,16-6.5c4.8-4.3,7.2-10.2,7.2-17.5
		C276.1,145.6,275.5,142.4,274.4,139.3z"/>
	<path class="st1" d="M332,154.8c0.8,2.4,1.3,4.9,1.3,7.4c0,5.6-1.8,10.3-5.3,14c-4.2,4.4-9.3,6.6-15.4,6.6c-2.6,0-5.1-0.5-7.5-1.5
		c-2.4-1-4.7-2.6-6.7-4.9c-2.1-2.3-3.5-4.7-4.4-7.3l7.4-5.1c0.4,0.8,0.9,1.8,1.5,3c2.4,4.1,5.8,6.2,10.4,6.2c3.8,0,6.6-1.5,8.4-4.4
		c1.3-2.2,2-4.4,2-6.9c0-2.4-0.7-4.3-2.2-5.8c-1.7-1.8-4.2-3.5-7.4-5.1c-2.9-1.4-5.7-2.7-8.5-4.1c-5.5-2.9-8.8-6.2-9.8-9.9
		c-0.5-1.6-0.7-3.3-0.7-4.9c0-3.7,1-6.8,3.1-9.3c3.7-4.6,8.3-6.9,13.8-6.9c1.5,0,3,0.2,4.5,0.5c2.4,0.6,4.6,1.7,6.9,3.5
		c2.2,1.7,3.8,3.6,4.8,5.6c-1.8,1.2-4.3,2.9-7.7,5.2c-2.3-3.5-5-5.2-8.1-5.2c-0.7,0-1.3,0.1-2.1,0.3c-1.4,0.3-2.5,1.1-3.4,2.3
		c-0.9,1.2-1.4,2.5-1.4,3.9c0,2.6,1.3,4.6,3.8,6c4.3,2,8.7,4.1,13,6.1C327.2,146.9,330.4,150.5,332,154.8z"/>
</g>
<g>
	<rect x="11.2" y="198.5" class="st1" width="30.8" height="1.7"/>
	<rect x="303" y="198.5" class="st1" width="30.8" height="1.7"/>
</g>
<g>
	<path class="st1" d="M55.3,201.7c0,0.7-0.3,1.3-0.8,1.7s-1.2,0.6-2.1,0.6c-1,0-1.8-0.1-2.4-0.3v-0.6c0.6,0.3,1.4,0.4,2.4,0.4
		c0.7,0,1.3-0.2,1.7-0.5s0.6-0.7,0.6-1.3c0-0.3-0.1-0.6-0.2-0.8s-0.4-0.4-0.7-0.6s-0.8-0.4-1.4-0.6c-0.9-0.3-1.5-0.6-1.8-1
		s-0.5-0.8-0.5-1.4c0-0.6,0.3-1.2,0.8-1.6s1.1-0.6,1.9-0.6c0.8,0,1.6,0.2,2.3,0.5l-0.2,0.5c-0.7-0.3-1.4-0.4-2-0.4
		c-0.6,0-1.1,0.1-1.5,0.4s-0.6,0.7-0.6,1.2c0,0.3,0.1,0.6,0.2,0.8s0.3,0.4,0.6,0.5s0.7,0.4,1.3,0.6c0.7,0.2,1.2,0.5,1.5,0.7
		s0.6,0.5,0.7,0.7S55.3,201.4,55.3,201.7z"/>
	<path class="st1" d="M66.4,199.7c0,1.4-0.3,2.4-1,3.2s-1.6,1.2-2.8,1.2c-1.2,0-2.1-0.4-2.8-1.2s-1-1.9-1-3.2c0-1.4,0.3-2.4,1-3.2
		s1.6-1.2,2.8-1.2c1.2,0,2.1,0.4,2.8,1.2S66.4,198.3,66.4,199.7z M59.4,199.7c0,1.2,0.3,2.2,0.8,2.8s1.3,1,2.4,1c1,0,1.8-0.3,2.4-1
		s0.8-1.6,0.8-2.9c0-1.2-0.3-2.2-0.8-2.8s-1.3-1-2.4-1c-1,0-1.8,0.3-2.4,1S59.4,198.4,59.4,199.7z"/>
	<path class="st1" d="M71.2,204h-0.6v-8.6h4.7v0.6h-4.1v3.6H75v0.6h-3.9V204z"/>
	<path class="st1" d="M81,204h-0.6v-8h-2.8v-0.6h6.2v0.6H81V204z"/>
	<path class="st1" d="M94,204h-0.5l-1.9-6.6c-0.2-0.5-0.3-1-0.4-1.3c-0.1,0.3-0.2,0.7-0.3,1.2s-0.7,2.7-1.9,6.8h-0.5l-2.4-8.6h0.6
		l1.5,5.5c0.1,0.2,0.1,0.4,0.2,0.6s0.1,0.4,0.1,0.5s0.1,0.3,0.1,0.5s0.1,0.3,0.1,0.5c0.1-0.5,0.3-1.3,0.6-2.4l1.5-5.2h0.7l1.7,6
		c0.2,0.7,0.3,1.2,0.4,1.7c0.1-0.3,0.1-0.6,0.2-0.9s0.7-2.6,1.8-6.7h0.6L94,204z"/>
	<path class="st1" d="M104.2,200.9h-3.5l-1.2,3h-0.7l3.4-8.6h0.4l3.4,8.6h-0.7L104.2,200.9z M100.9,200.4h3.1l-1.2-3.1
		c-0.1-0.2-0.2-0.6-0.4-1c-0.1,0.4-0.2,0.7-0.3,1L100.9,200.4z"/>
	<path class="st1" d="M110,200.2v3.7h-0.6v-8.6h2c1.1,0,1.8,0.2,2.4,0.6s0.8,1,0.8,1.8c0,0.6-0.2,1.1-0.5,1.5s-0.8,0.7-1.4,0.8
		l2.3,3.9h-0.7l-2.2-3.7H110z M110,199.7h1.6c0.7,0,1.3-0.2,1.7-0.5s0.6-0.8,0.6-1.4c0-0.7-0.2-1.1-0.6-1.4s-1-0.4-1.9-0.4H110
		V199.7z"/>
	<path class="st1" d="M123.4,204h-4.7v-8.6h4.7v0.6h-4.1v3.2h3.9v0.6h-3.9v3.7h4.1V204z"/>
	<path class="st1" d="M139.3,199.6c0,1.4-0.4,2.5-1.1,3.3s-1.9,1.1-3.3,1.1h-2.1v-8.6h2.3c1.4,0,2.4,0.4,3.1,1.1
		S139.3,198.2,139.3,199.6z M138.6,199.6c0-1.2-0.3-2.1-0.9-2.8s-1.5-0.9-2.7-0.9h-1.6v7.5h1.4C137.4,203.4,138.6,202.2,138.6,199.6
		z"/>
	<path class="st1" d="M148.1,204h-4.7v-8.6h4.7v0.6H144v3.2h3.9v0.6H144v3.7h4.1V204z"/>
	<path class="st1" d="M161.1,195.8c-1.1,0-1.9,0.3-2.5,1s-0.9,1.6-0.9,2.8c0,1.2,0.3,2.2,0.9,2.8s1.4,1,2.5,1c0.7,0,1.4-0.1,2-0.3
		v0.5c-0.6,0.2-1.3,0.3-2.1,0.3c-1.2,0-2.2-0.4-2.8-1.2s-1-1.9-1-3.3c0-0.9,0.2-1.6,0.5-2.3s0.8-1.2,1.4-1.5s1.3-0.5,2.2-0.5
		c0.8,0,1.6,0.2,2.2,0.5l-0.2,0.5C162.5,196,161.8,195.8,161.1,195.8z"/>
	<path class="st1" d="M174.3,199.7c0,1.4-0.3,2.4-1,3.2s-1.6,1.2-2.8,1.2c-1.2,0-2.1-0.4-2.8-1.2s-1-1.9-1-3.2c0-1.4,0.3-2.4,1-3.2
		s1.6-1.2,2.8-1.2c1.2,0,2.1,0.4,2.8,1.2S174.3,198.3,174.3,199.7z M167.3,199.7c0,1.2,0.3,2.2,0.8,2.8s1.3,1,2.4,1
		c1,0,1.8-0.3,2.4-1s0.8-1.6,0.8-2.9c0-1.2-0.3-2.2-0.8-2.8s-1.3-1-2.4-1c-1,0-1.8,0.3-2.4,1S167.3,198.4,167.3,199.7z"/>
	<path class="st1" d="M184.6,204H184l-5.1-7.6h0c0,0.9,0.1,1.6,0.1,2.1v5.6h-0.6v-8.6h0.6l5.1,7.6h0c0-0.7-0.1-1.4-0.1-2v-5.6h0.6
		V204z"/>
	<path class="st1" d="M191.5,204h-0.6v-8h-2.8v-0.6h6.2v0.6h-2.8V204z"/>
	<path class="st1" d="M198.3,200.2v3.7h-0.6v-8.6h2c1.1,0,1.8,0.2,2.4,0.6s0.8,1,0.8,1.8c0,0.6-0.2,1.1-0.5,1.5s-0.8,0.7-1.4,0.8
		l2.3,3.9h-0.7l-2.2-3.7H198.3z M198.3,199.7h1.6c0.7,0,1.3-0.2,1.7-0.5s0.6-0.8,0.6-1.4c0-0.7-0.2-1.1-0.6-1.4s-1-0.4-1.9-0.4h-1.4
		V199.7z"/>
	<path class="st1" d="M214.2,199.7c0,1.4-0.3,2.4-1,3.2s-1.6,1.2-2.8,1.2c-1.2,0-2.1-0.4-2.8-1.2s-1-1.9-1-3.2c0-1.4,0.3-2.4,1-3.2
		s1.6-1.2,2.8-1.2c1.2,0,2.1,0.4,2.8,1.2S214.2,198.3,214.2,199.7z M207.2,199.7c0,1.2,0.3,2.2,0.8,2.8s1.3,1,2.4,1
		c1,0,1.8-0.3,2.4-1s0.8-1.6,0.8-2.9c0-1.2-0.3-2.2-0.8-2.8s-1.3-1-2.4-1c-1,0-1.8,0.3-2.4,1S207.2,198.4,207.2,199.7z"/>
	<path class="st1" d="M218.3,204v-8.6h0.6v8h4.1v0.6H218.3z"/>
	<path class="st1" d="M230.5,206.1c-0.4,0-0.7-0.1-0.9-0.2v-0.5c0.3,0.1,0.6,0.1,0.9,0.1c0.9,0,1.4-0.5,1.4-1.5v-8.6h0.6v8.6
		C232.5,205.4,231.8,206.1,230.5,206.1z"/>
	<path class="st1" d="M243.3,195.4v5.5c0,1-0.3,1.8-0.9,2.3s-1.4,0.8-2.4,0.8c-1,0-1.8-0.3-2.3-0.8s-0.8-1.3-0.8-2.3v-5.5h0.6v5.5
		c0,0.8,0.2,1.5,0.7,1.9s1.1,0.7,1.9,0.7c0.8,0,1.4-0.2,1.9-0.7s0.7-1.1,0.7-1.9v-5.6H243.3z"/>
	<path class="st1" d="M248.4,200.2v3.7h-0.6v-8.6h2c1.1,0,1.8,0.2,2.4,0.6s0.8,1,0.8,1.8c0,0.6-0.2,1.1-0.5,1.5s-0.8,0.7-1.4,0.8
		l2.3,3.9h-0.7l-2.2-3.7H248.4z M248.4,199.7h1.6c0.7,0,1.3-0.2,1.7-0.5s0.6-0.8,0.6-1.4c0-0.7-0.2-1.1-0.6-1.4s-1-0.4-1.9-0.4h-1.4
		V199.7z"/>
	<path class="st1" d="M257.1,204v-8.6h0.6v8.6H257.1z"/>
	<path class="st1" d="M268.8,199.6c0,1.4-0.4,2.5-1.1,3.3s-1.9,1.1-3.3,1.1h-2.1v-8.6h2.3c1.4,0,2.4,0.4,3.1,1.1
		S268.8,198.2,268.8,199.6z M268.1,199.6c0-1.2-0.3-2.1-0.9-2.8s-1.5-0.9-2.7-0.9h-1.6v7.5h1.4C266.9,203.4,268.1,202.2,268.1,199.6
		z"/>
	<path class="st1" d="M272.9,204v-8.6h0.6v8.6H272.9z"/>
	<path class="st1" d="M281.8,195.8c-1.1,0-1.9,0.3-2.5,1s-0.9,1.6-0.9,2.8c0,1.2,0.3,2.2,0.9,2.8s1.4,1,2.5,1c0.7,0,1.4-0.1,2-0.3
		v0.5c-0.6,0.2-1.3,0.3-2.1,0.3c-1.2,0-2.2-0.4-2.8-1.2s-1-1.9-1-3.3c0-0.9,0.2-1.6,0.5-2.3s0.8-1.2,1.4-1.5s1.3-0.5,2.2-0.5
		c0.8,0,1.6,0.2,2.2,0.5l-0.2,0.5C283.1,196,282.4,195.8,281.8,195.8z"/>
	<path class="st1" d="M294.9,199.7c0,1.4-0.3,2.4-1,3.2s-1.6,1.2-2.8,1.2c-1.2,0-2.1-0.4-2.8-1.2s-1-1.9-1-3.2c0-1.4,0.3-2.4,1-3.2
		s1.6-1.2,2.8-1.2c1.2,0,2.1,0.4,2.8,1.2S294.9,198.3,294.9,199.7z M287.9,199.7c0,1.2,0.3,2.2,0.8,2.8s1.3,1,2.4,1
		c1,0,1.8-0.3,2.4-1s0.8-1.6,0.8-2.9c0-1.2-0.3-2.2-0.8-2.8s-1.3-1-2.4-1c-1,0-1.8,0.3-2.4,1S287.9,198.4,287.9,199.7z"/>
</g>
</svg>
