<?xml version="1.0" encoding="utf-8"?>
<!-- Generator: Adobe Illustrator 21.1.0, SVG Export Plug-In . SVG Version: 6.00 Build 0)  -->
<svg version="1.1" id="Capa_1" xmlns="http://www.w3.org/2000/svg" xmlns:xlink="http://www.w3.org/1999/xlink" x="0px" y="0px"
	 viewBox="0 0 323.3 102.3" style="enable-background:new 0 0 323.3 102.3;" xml:space="preserve">
<style type="text/css">
	.st0{fill-rule:evenodd;clip-rule:evenodd;fill:#FFFFFF;}
</style>
<path class="st0" d="M282.9,49.9l-23.2-10.3L222.7,0c0,0-25.4,2.5-29.2,3.4C189.7,4.4,172,18.1,172,18.1s-3.5-0.7-6,0
	c-2.5,0.7-22.4,21.5-22.4,21.5l-18.9-22.4c0,0-5.9,2.7-6.9,2.6c-0.9-0.1-18.9,8.6-18.9,8.6L73.1,53.3l-23.2,2.6L0,102.3h159.9
	L124.7,74l-7.7,2.6L99.8,74l22.4-49l60.2,77.3h94.6l-31-34.3l-8.6,1.7l-24.9,2.6l-6.9-28.4l22.4,12.9l-26.7-35.3l12-3.4l15.5,12
	l7.7-8.6l18.9,23.2l24.9,9.5l38.7,48.1h4.3L282.9,49.9z M228.7,24.9l-12-11.2l-16.3,4.3l0.9-3.4l-9.5,3.4l-3.4,0.9l-0.9-0.9
	c0,0,10.1-8.8,10.3-9.5c0.3-0.7,24.1-3.4,24.1-3.4l12,13.8L228.7,24.9z"/>
</svg>
